<?xml version="1.0" encoding="UTF-8" standalone="no"?>
<!-- Created with Inkscape (http://www.inkscape.org/) -->

<svg
   version="1.1"
   id="svg2"
   width="234.66667"
   height="92"
   viewBox="0 0 234.66667 92"
   sodipodi:docname="logo_hda.eps"
   xmlns:inkscape="http://www.inkscape.org/namespaces/inkscape"
   xmlns:sodipodi="http://sodipodi.sourceforge.net/DTD/sodipodi-0.dtd"
   xmlns="http://www.w3.org/2000/svg"
   xmlns:svg="http://www.w3.org/2000/svg">
  <defs
     id="defs6" />
  <sodipodi:namedview
     id="namedview4"
     pagecolor="#ffffff"
     bordercolor="#000000"
     borderopacity="0.25"
     inkscape:showpageshadow="2"
     inkscape:pageopacity="0.0"
     inkscape:pagecheckerboard="0"
     inkscape:deskcolor="#d1d1d1" />
  <g
     id="g8"
     inkscape:groupmode="layer"
     inkscape:label="ink_ext_XXXXXX"
     transform="matrix(1.3333333,0,0,-1.3333333,0,92)">
    <g
       id="g10"
       transform="scale(0.1)">
      <path
         d="m 5.26953,325.23 c 2.92969,0 5.28127,2.34 5.28127,5.231 0,2.93 -2.35158,5.269 -5.28127,5.269 C 2.33984,335.73 0,333.391 0,330.461 0,327.57 2.33984,325.23 5.26953,325.23"
         style="fill:#ac1b21;fill-opacity:1;fill-rule:nonzero;stroke:none"
         id="path12" />
      <path
         d="m 26.4805,324.988 c 2.8984,0 5.2812,2.352 5.2812,5.282 0,2.89 -2.3828,5.269 -5.2812,5.269 -2.9297,0 -5.2696,-2.379 -5.2696,-5.269 0,-2.93 2.3399,-5.282 5.2696,-5.282"
         style="fill:#ac1b21;fill-opacity:1;fill-rule:nonzero;stroke:none"
         id="path14" />
      <path
         d="m 26.4805,339.988 c 2.8984,0 5.2812,2.352 5.2812,5.282 0,2.89 -2.3828,5.269 -5.2812,5.269 -2.9297,0 -5.2696,-2.379 -5.2696,-5.269 0,-2.93 2.3399,-5.282 5.2696,-5.282"
         style="fill:#ac1b21;fill-opacity:1;fill-rule:nonzero;stroke:none"
         id="path16" />
      <path
         d="m 111.289,160.23 c 2.891,0 5.27,2.34 5.27,5.27 0,2.891 -2.379,5.27 -5.27,5.27 -2.93,0 -5.309,-2.379 -5.309,-5.27 0,-2.93 2.379,-5.27 5.309,-5.27"
         style="fill:#ac1b21;fill-opacity:1;fill-rule:nonzero;stroke:none"
         id="path18" />
      <path
         d="m 90.1211,145.23 c 2.9297,0 5.2695,2.34 5.2695,5.27 0,2.891 -2.3398,5.27 -5.2695,5.27 -2.8906,0 -5.2813,-2.379 -5.2813,-5.27 0,-2.93 2.3907,-5.27 5.2813,-5.27"
         style="fill:#ac1b21;fill-opacity:1;fill-rule:nonzero;stroke:none"
         id="path20" />
      <path
         d="m 90.1211,130.23 c 2.9297,0 5.2695,2.34 5.2695,5.27 0,2.891 -2.3398,5.27 -5.2695,5.27 -2.8906,0 -5.2813,-2.379 -5.2813,-5.27 0,-2.93 2.3907,-5.27 5.2813,-5.27"
         style="fill:#ac1b21;fill-opacity:1;fill-rule:nonzero;stroke:none"
         id="path22" />
      <path
         d="m 90.1211,160.23 c 2.9297,0 5.2695,2.34 5.2695,5.27 0,2.891 -2.3398,5.27 -5.2695,5.27 -2.8906,0 -5.2813,-2.379 -5.2813,-5.27 0,-2.93 2.3907,-5.27 5.2813,-5.27"
         style="fill:#ac1b21;fill-opacity:1;fill-rule:nonzero;stroke:none"
         id="path24" />
      <path
         d="m 111.289,175.23 c 2.891,0 5.27,2.34 5.27,5.27 0,2.891 -2.379,5.27 -5.27,5.27 -2.93,0 -5.309,-2.379 -5.309,-5.27 0,-2.93 2.379,-5.27 5.309,-5.27"
         style="fill:#ac1b21;fill-opacity:1;fill-rule:nonzero;stroke:none"
         id="path26" />
      <path
         d="m 111.328,190.23 c 2.891,0 5.274,2.34 5.274,5.27 0,2.891 -2.383,5.27 -5.274,5.27 -2.93,0 -5.277,-2.379 -5.277,-5.27 0,-2.93 2.347,-5.27 5.277,-5.27"
         style="fill:#ac1b21;fill-opacity:1;fill-rule:nonzero;stroke:none"
         id="path28" />
      <path
         d="m 111.289,235.23 c 2.891,0 5.27,2.34 5.27,5.231 0,2.93 -2.379,5.309 -5.27,5.309 -2.93,0 -5.309,-2.379 -5.309,-5.309 0,-2.891 2.379,-5.231 5.309,-5.231"
         style="fill:#ac1b21;fill-opacity:1;fill-rule:nonzero;stroke:none"
         id="path30" />
      <path
         d="m 111.289,205.23 c 2.891,0 5.27,2.34 5.27,5.27 0,2.891 -2.379,5.27 -5.27,5.27 -2.93,0 -5.309,-2.379 -5.309,-5.27 0,-2.93 2.379,-5.27 5.309,-5.27"
         style="fill:#ac1b21;fill-opacity:1;fill-rule:nonzero;stroke:none"
         id="path32" />
      <path
         d="m 90.1211,190.23 c 2.9297,0 5.2695,2.34 5.2695,5.27 0,2.891 -2.3398,5.27 -5.2695,5.27 -2.8906,0 -5.2813,-2.379 -5.2813,-5.27 0,-2.93 2.3907,-5.27 5.2813,-5.27"
         style="fill:#ac1b21;fill-opacity:1;fill-rule:nonzero;stroke:none"
         id="path34" />
      <path
         d="m 90.0781,175.23 c 2.8907,0 5.2735,2.34 5.2735,5.27 0,2.891 -2.3828,5.27 -5.2735,5.27 -2.9297,0 -5.2773,-2.379 -5.2773,-5.27 0,-2.93 2.3476,-5.27 5.2773,-5.27"
         style="fill:#ac1b21;fill-opacity:1;fill-rule:nonzero;stroke:none"
         id="path36" />
      <path
         d="m 111.289,220.23 c 2.891,0 5.27,2.34 5.27,5.27 0,2.891 -2.379,5.27 -5.27,5.27 -2.93,0 -5.309,-2.379 -5.309,-5.27 0,-2.93 2.379,-5.27 5.309,-5.27"
         style="fill:#ac1b21;fill-opacity:1;fill-rule:nonzero;stroke:none"
         id="path38" />
      <path
         d="m 90.0781,115.23 c 2.8907,0 5.2735,2.34 5.2735,5.27 0,2.891 -2.3828,5.27 -5.2735,5.27 -2.9297,0 -5.2773,-2.379 -5.2773,-5.27 0,-2.93 2.3476,-5.27 5.2773,-5.27"
         style="fill:#ac1b21;fill-opacity:1;fill-rule:nonzero;stroke:none"
         id="path40" />
      <path
         d="m 90.1211,205.23 c 2.9297,0 5.2695,2.34 5.2695,5.27 0,2.891 -2.3398,5.27 -5.2695,5.27 -2.8906,0 -5.2813,-2.379 -5.2813,-5.27 0,-2.93 2.3907,-5.27 5.2813,-5.27"
         style="fill:#ac1b21;fill-opacity:1;fill-rule:nonzero;stroke:none"
         id="path42" />
      <path
         d="m 90.1211,249.988 c 2.9297,0 5.2695,2.352 5.2695,5.282 0,2.89 -2.3398,5.269 -5.2695,5.269 -2.8906,0 -5.2813,-2.379 -5.2813,-5.269 0,-2.93 2.3907,-5.282 5.2813,-5.282"
         style="fill:#ac1b21;fill-opacity:1;fill-rule:nonzero;stroke:none"
         id="path44" />
      <path
         d="m 90.1211,234.988 c 2.9297,0 5.2695,2.352 5.2695,5.282 0,2.89 -2.3398,5.269 -5.2695,5.269 -2.8906,0 -5.2813,-2.379 -5.2813,-5.269 0,-2.93 2.3907,-5.282 5.2813,-5.282"
         style="fill:#ac1b21;fill-opacity:1;fill-rule:nonzero;stroke:none"
         id="path46" />
      <path
         d="m 90.1211,264.988 c 2.9297,0 5.2695,2.352 5.2695,5.282 0,2.89 -2.3398,5.269 -5.2695,5.269 -2.8906,0 -5.2813,-2.379 -5.2813,-5.269 0,-2.93 2.3907,-5.282 5.2813,-5.282"
         style="fill:#ac1b21;fill-opacity:1;fill-rule:nonzero;stroke:none"
         id="path48" />
      <path
         d="m 90.1211,294.988 c 2.9297,0 5.2695,2.352 5.2695,5.282 0,2.89 -2.3398,5.269 -5.2695,5.269 -2.8906,0 -5.2813,-2.379 -5.2813,-5.269 0,-2.93 2.3907,-5.282 5.2813,-5.282"
         style="fill:#ac1b21;fill-opacity:1;fill-rule:nonzero;stroke:none"
         id="path50" />
      <path
         d="m 90.0781,279.988 c 2.8907,0 5.2735,2.352 5.2735,5.282 0,2.89 -2.3828,5.269 -5.2735,5.269 -2.9297,0 -5.2773,-2.379 -5.2773,-5.269 0,-2.93 2.3476,-5.282 5.2773,-5.282"
         style="fill:#ac1b21;fill-opacity:1;fill-rule:nonzero;stroke:none"
         id="path52" />
      <path
         d="m 90.0781,219.988 c 2.8907,0 5.2735,2.352 5.2735,5.282 0,2.929 -2.3828,5.269 -5.2735,5.269 -2.9297,0 -5.2773,-2.34 -5.2773,-5.269 0,-2.93 2.3476,-5.282 5.2773,-5.282"
         style="fill:#ac1b21;fill-opacity:1;fill-rule:nonzero;stroke:none"
         id="path54" />
      <path
         d="m 90.1211,309.988 c 2.9297,0 5.2695,2.352 5.2695,5.282 0,2.89 -2.3398,5.269 -5.2695,5.269 -2.8906,0 -5.2813,-2.379 -5.2813,-5.269 0,-2.93 2.3907,-5.282 5.2813,-5.282"
         style="fill:#ac1b21;fill-opacity:1;fill-rule:nonzero;stroke:none"
         id="path56" />
      <path
         d="m 111.289,279.988 c 2.891,0 5.27,2.352 5.27,5.282 0,2.89 -2.379,5.269 -5.27,5.269 -2.93,0 -5.309,-2.379 -5.309,-5.269 0,-2.93 2.379,-5.282 5.309,-5.282"
         style="fill:#ac1b21;fill-opacity:1;fill-rule:nonzero;stroke:none"
         id="path58" />
      <path
         d="m 111.289,264.988 c 2.891,0 5.27,2.352 5.27,5.282 0,2.89 -2.379,5.269 -5.27,5.269 -2.93,0 -5.309,-2.379 -5.309,-5.269 0,-2.93 2.379,-5.282 5.309,-5.282"
         style="fill:#ac1b21;fill-opacity:1;fill-rule:nonzero;stroke:none"
         id="path60" />
      <path
         d="m 111.289,294.988 c 2.891,0 5.27,2.352 5.27,5.282 0,2.89 -2.379,5.269 -5.27,5.269 -2.93,0 -5.309,-2.379 -5.309,-5.269 0,-2.93 2.379,-5.282 5.309,-5.282"
         style="fill:#ac1b21;fill-opacity:1;fill-rule:nonzero;stroke:none"
         id="path62" />
      <path
         d="m 111.289,324.988 c 2.891,0 5.27,2.352 5.27,5.282 0,2.89 -2.379,5.269 -5.27,5.269 -2.93,0 -5.309,-2.379 -5.309,-5.269 0,-2.93 2.379,-5.282 5.309,-5.282"
         style="fill:#ac1b21;fill-opacity:1;fill-rule:nonzero;stroke:none"
         id="path64" />
      <path
         d="m 111.211,309.988 c 2.93,0 5.269,2.352 5.269,5.282 0,2.89 -2.339,5.269 -5.269,5.269 -2.891,0 -5.27,-2.379 -5.27,-5.269 0,-2.93 2.379,-5.282 5.27,-5.282"
         style="fill:#ac1b21;fill-opacity:1;fill-rule:nonzero;stroke:none"
         id="path66" />
      <path
         d="m 111.211,249.988 c 2.93,0 5.269,2.352 5.269,5.282 0,2.89 -2.339,5.269 -5.269,5.269 -2.891,0 -5.27,-2.379 -5.27,-5.269 0,-2.93 2.379,-5.282 5.27,-5.282"
         style="fill:#ac1b21;fill-opacity:1;fill-rule:nonzero;stroke:none"
         id="path68" />
      <path
         d="m 111.289,339.988 c 2.891,0 5.27,2.352 5.27,5.282 0,2.89 -2.379,5.269 -5.27,5.269 -2.93,0 -5.309,-2.379 -5.309,-5.269 0,-2.93 2.379,-5.282 5.309,-5.282"
         style="fill:#ac1b21;fill-opacity:1;fill-rule:nonzero;stroke:none"
         id="path70" />
      <path
         d="m 111.289,84.9883 c 2.891,0 5.27,2.3515 5.27,5.2812 0,2.9297 -2.379,5.2696 -5.27,5.2696 -2.93,0 -5.309,-2.3399 -5.309,-5.2696 0,-2.9297 2.379,-5.2812 5.309,-5.2812"
         style="fill:#ac1b21;fill-opacity:1;fill-rule:nonzero;stroke:none"
         id="path72" />
      <path
         d="m 111.289,69.9883 c 2.891,0 5.27,2.3515 5.27,5.2812 0,2.9297 -2.379,5.2696 -5.27,5.2696 -2.93,0 -5.309,-2.3399 -5.309,-5.2696 0,-2.9297 2.379,-5.2812 5.309,-5.2812"
         style="fill:#ac1b21;fill-opacity:1;fill-rule:nonzero;stroke:none"
         id="path74" />
      <path
         d="m 111.289,99.9883 c 2.891,0 5.27,2.3517 5.27,5.2817 0,2.929 -2.379,5.269 -5.27,5.269 -2.93,0 -5.309,-2.34 -5.309,-5.269 0,-2.93 2.379,-5.2817 5.309,-5.2817"
         style="fill:#ac1b21;fill-opacity:1;fill-rule:nonzero;stroke:none"
         id="path76" />
      <path
         d="m 111.289,129.988 c 2.891,0 5.27,2.352 5.27,5.282 0,2.929 -2.379,5.269 -5.27,5.269 -2.93,0 -5.309,-2.34 -5.309,-5.269 0,-2.93 2.379,-5.282 5.309,-5.282"
         style="fill:#ac1b21;fill-opacity:1;fill-rule:nonzero;stroke:none"
         id="path78" />
      <path
         d="m 111.211,114.988 c 2.93,0 5.269,2.352 5.269,5.282 0,2.929 -2.339,5.269 -5.269,5.269 -2.891,0 -5.27,-2.34 -5.27,-5.269 0,-2.93 2.379,-5.282 5.27,-5.282"
         style="fill:#ac1b21;fill-opacity:1;fill-rule:nonzero;stroke:none"
         id="path80" />
      <path
         d="m 111.211,54.9883 c 2.93,0 5.269,2.3515 5.269,5.2812 0,2.9297 -2.339,5.2696 -5.269,5.2696 -2.891,0 -5.27,-2.3399 -5.27,-5.2696 0,-2.9297 2.379,-5.2812 5.27,-5.2812"
         style="fill:#ac1b21;fill-opacity:1;fill-rule:nonzero;stroke:none"
         id="path82" />
      <path
         d="m 111.289,144.988 c 2.891,0 5.27,2.352 5.27,5.282 0,2.929 -2.379,5.269 -5.27,5.269 -2.93,0 -5.309,-2.34 -5.309,-5.269 0,-2.93 2.379,-5.282 5.309,-5.282"
         style="fill:#ac1b21;fill-opacity:1;fill-rule:nonzero;stroke:none"
         id="path84" />
      <path
         d="m 90.0781,39.9883 c 2.8907,0 5.2735,2.3828 5.2735,5.2812 0,2.9297 -2.3828,5.2696 -5.2735,5.2696 -2.9297,0 -5.2773,-2.3399 -5.2773,-5.2696 0,-2.8984 2.3476,-5.2812 5.2773,-5.2812"
         style="fill:#ac1b21;fill-opacity:1;fill-rule:nonzero;stroke:none"
         id="path86" />
      <path
         d="m 90.0781,24.9883 c 2.8907,0 5.2735,2.3828 5.2735,5.2812 0,2.9297 -2.3828,5.2696 -5.2735,5.2696 -2.9297,0 -5.2773,-2.3399 -5.2773,-5.2696 0,-2.8984 2.3476,-5.2812 5.2773,-5.2812"
         style="fill:#ac1b21;fill-opacity:1;fill-rule:nonzero;stroke:none"
         id="path88" />
      <path
         d="m 90.0781,54.9883 c 2.8907,0 5.2735,2.3515 5.2735,5.2812 0,2.9297 -2.3828,5.2696 -5.2735,5.2696 -2.9297,0 -5.2773,-2.3399 -5.2773,-5.2696 0,-2.9297 2.3476,-5.2812 5.2773,-5.2812"
         style="fill:#ac1b21;fill-opacity:1;fill-rule:nonzero;stroke:none"
         id="path90" />
      <path
         d="m 90.0781,84.9883 c 2.8907,0 5.2735,2.3515 5.2735,5.2812 0,2.9297 -2.3828,5.2696 -5.2735,5.2696 -2.9297,0 -5.2773,-2.3399 -5.2773,-5.2696 0,-2.9297 2.3476,-5.2812 5.2773,-5.2812"
         style="fill:#ac1b21;fill-opacity:1;fill-rule:nonzero;stroke:none"
         id="path92" />
      <path
         d="m 90,69.9883 c 2.9297,0 5.2695,2.3515 5.2695,5.2812 0,2.9297 -2.3398,5.2696 -5.2695,5.2696 -2.8906,0 -5.2695,-2.3399 -5.2695,-5.2696 0,-2.9297 2.3789,-5.2812 5.2695,-5.2812"
         style="fill:#ac1b21;fill-opacity:1;fill-rule:nonzero;stroke:none"
         id="path94" />
      <path
         d="m 90,9.98828 c 2.9297,0 5.2695,2.38282 5.2695,5.28122 0,2.9297 -2.3398,5.2696 -5.2695,5.2696 -2.8906,0 -5.2695,-2.3399 -5.2695,-5.2696 0,-2.8984 2.3789,-5.28122 5.2695,-5.28122"
         style="fill:#ac1b21;fill-opacity:1;fill-rule:nonzero;stroke:none"
         id="path96" />
      <path
         d="m 90.0781,99.9883 c 2.8907,0 5.2735,2.3517 5.2735,5.2817 0,2.929 -2.3828,5.269 -5.2735,5.269 -2.9297,0 -5.2773,-2.34 -5.2773,-5.269 0,-2.93 2.3476,-5.2817 5.2773,-5.2817"
         style="fill:#ac1b21;fill-opacity:1;fill-rule:nonzero;stroke:none"
         id="path98" />
      <path
         d="m 111.289,39.9883 c 2.891,0 5.27,2.3828 5.27,5.2812 0,2.9297 -2.379,5.2696 -5.27,5.2696 -2.93,0 -5.309,-2.3399 -5.309,-5.2696 0,-2.8984 2.379,-5.2812 5.309,-5.2812"
         style="fill:#ac1b21;fill-opacity:1;fill-rule:nonzero;stroke:none"
         id="path100" />
      <path
         d="m 47.6602,324.988 c 2.9296,0 5.2695,2.352 5.2695,5.282 0,2.89 -2.3399,5.269 -5.2695,5.269 -2.8907,0 -5.2813,-2.379 -5.2813,-5.269 0,-2.93 2.3906,-5.282 5.2813,-5.282"
         style="fill:#ac1b21;fill-opacity:1;fill-rule:nonzero;stroke:none"
         id="path102" />
      <path
         d="m 68.8711,324.988 c 2.9297,0 5.2695,2.352 5.2695,5.282 0,2.89 -2.3398,5.269 -5.2695,5.269 -2.9297,0 -5.2813,-2.379 -5.2813,-5.269 0,-2.93 2.3516,-5.282 5.2813,-5.282"
         style="fill:#ac1b21;fill-opacity:1;fill-rule:nonzero;stroke:none"
         id="path104" />
      <path
         d="m 47.6602,339.988 c 2.9296,0 5.2695,2.352 5.2695,5.282 0,2.89 -2.3399,5.269 -5.2695,5.269 -2.8907,0 -5.2813,-2.379 -5.2813,-5.269 0,-2.93 2.3906,-5.282 5.2813,-5.282"
         style="fill:#ac1b21;fill-opacity:1;fill-rule:nonzero;stroke:none"
         id="path106" />
      <path
         d="m 68.8281,339.988 c 2.8907,0 5.2735,2.352 5.2735,5.282 0,2.89 -2.3828,5.269 -5.2735,5.269 -2.9297,0 -5.2773,-2.379 -5.2773,-5.269 0,-2.93 2.3476,-5.282 5.2773,-5.282"
         style="fill:#ac1b21;fill-opacity:1;fill-rule:nonzero;stroke:none"
         id="path108" />
      <path
         d="m 90.0781,339.988 c 2.8907,0 5.2735,2.352 5.2735,5.282 0,2.89 -2.3828,5.269 -5.2735,5.269 -2.9297,0 -5.2773,-2.379 -5.2773,-5.269 0,-2.93 2.3476,-5.282 5.2773,-5.282"
         style="fill:#ac1b21;fill-opacity:1;fill-rule:nonzero;stroke:none"
         id="path110" />
      <path
         d="m 90.1211,324.988 c 2.9297,0 5.2695,2.352 5.2695,5.282 0,2.89 -2.3398,5.269 -5.2695,5.269 -2.8906,0 -5.2813,-2.379 -5.2813,-5.269 0,-2.93 2.3907,-5.282 5.2813,-5.282"
         style="fill:#ac1b21;fill-opacity:1;fill-rule:nonzero;stroke:none"
         id="path112" />
      <path
         d="m 174.961,175.23 c 2.93,0 5.269,2.34 5.269,5.27 0,2.891 -2.339,5.27 -5.269,5.27 -2.891,0 -5.27,-2.379 -5.27,-5.27 0,-2.93 2.379,-5.27 5.27,-5.27"
         style="fill:#ac1b21;fill-opacity:1;fill-rule:nonzero;stroke:none"
         id="path114" />
      <path
         d="m 153.59,220.23 c 2.93,0 5.32,2.34 5.32,5.27 0,2.891 -2.39,5.27 -5.32,5.27 -2.891,0 -5.231,-2.379 -5.231,-5.27 0,-2.93 2.34,-5.27 5.231,-5.27"
         style="fill:#ac1b21;fill-opacity:1;fill-rule:nonzero;stroke:none"
         id="path116" />
      <path
         d="m 153.672,235.23 c 2.887,0 5.277,2.34 5.277,5.231 0,2.93 -2.39,5.309 -5.277,5.309 -2.934,0 -5.274,-2.379 -5.274,-5.309 0,-2.891 2.34,-5.231 5.274,-5.231"
         style="fill:#ac1b21;fill-opacity:1;fill-rule:nonzero;stroke:none"
         id="path118" />
      <path
         d="m 174.922,250.23 c 2.887,0 5.277,2.34 5.277,5.231 0,2.93 -2.39,5.309 -5.277,5.309 -2.934,0 -5.274,-2.379 -5.274,-5.309 0,-2.891 2.34,-5.231 5.274,-5.231"
         style="fill:#ac1b21;fill-opacity:1;fill-rule:nonzero;stroke:none"
         id="path120" />
      <path
         d="m 153.789,250.23 c 2.891,0 5.27,2.34 5.27,5.231 0,2.93 -2.379,5.309 -5.27,5.309 -2.93,0 -5.269,-2.379 -5.269,-5.309 0,-2.891 2.339,-5.231 5.269,-5.231"
         style="fill:#ac1b21;fill-opacity:1;fill-rule:nonzero;stroke:none"
         id="path122" />
      <path
         d="m 174.879,265.23 c 2.891,0 5.281,2.34 5.281,5.231 0,2.93 -2.39,5.309 -5.281,5.309 -2.93,0 -5.27,-2.379 -5.27,-5.309 0,-2.891 2.34,-5.231 5.27,-5.231"
         style="fill:#ac1b21;fill-opacity:1;fill-rule:nonzero;stroke:none"
         id="path124" />
      <path
         d="m 174.961,280.23 c 2.93,0 5.269,2.34 5.269,5.231 0,2.93 -2.339,5.309 -5.269,5.309 -2.891,0 -5.27,-2.379 -5.27,-5.309 0,-2.891 2.379,-5.231 5.27,-5.231"
         style="fill:#ac1b21;fill-opacity:1;fill-rule:nonzero;stroke:none"
         id="path126" />
      <path
         d="m 174.922,310.23 c 2.887,0 5.277,2.34 5.277,5.231 0,2.93 -2.39,5.269 -5.277,5.269 -2.934,0 -5.274,-2.339 -5.274,-5.269 0,-2.891 2.34,-5.231 5.274,-5.231"
         style="fill:#ac1b21;fill-opacity:1;fill-rule:nonzero;stroke:none"
         id="path128" />
      <path
         d="m 174.922,295.23 c 2.887,0 5.277,2.34 5.277,5.231 0,2.93 -2.39,5.309 -5.277,5.309 -2.934,0 -5.274,-2.379 -5.274,-5.309 0,-2.891 2.34,-5.231 5.274,-5.231"
         style="fill:#ac1b21;fill-opacity:1;fill-rule:nonzero;stroke:none"
         id="path130" />
      <path
         d="m 153.711,280.23 c 2.93,0 5.269,2.34 5.269,5.231 0,2.93 -2.339,5.309 -5.269,5.309 -2.891,0 -5.27,-2.379 -5.27,-5.309 0,-2.891 2.379,-5.231 5.27,-5.231"
         style="fill:#ac1b21;fill-opacity:1;fill-rule:nonzero;stroke:none"
         id="path132" />
      <path
         d="m 153.672,265.23 c 2.887,0 5.277,2.34 5.277,5.231 0,2.93 -2.39,5.309 -5.277,5.309 -2.934,0 -5.274,-2.379 -5.274,-5.309 0,-2.891 2.34,-5.231 5.274,-5.231"
         style="fill:#ac1b21;fill-opacity:1;fill-rule:nonzero;stroke:none"
         id="path134" />
      <path
         d="m 153.672,295.23 c 2.887,0 5.277,2.34 5.277,5.231 0,2.93 -2.39,5.309 -5.277,5.309 -2.934,0 -5.274,-2.379 -5.274,-5.309 0,-2.891 2.34,-5.231 5.274,-5.231"
         style="fill:#ac1b21;fill-opacity:1;fill-rule:nonzero;stroke:none"
         id="path136" />
      <path
         d="m 174.879,160.23 c 2.891,0 5.281,2.34 5.281,5.27 0,2.891 -2.39,5.27 -5.281,5.27 -2.93,0 -5.27,-2.379 -5.27,-5.27 0,-2.93 2.34,-5.27 5.27,-5.27"
         style="fill:#ac1b21;fill-opacity:1;fill-rule:nonzero;stroke:none"
         id="path138" />
      <path
         d="m 174.879,145.23 c 2.891,0 5.281,2.34 5.281,5.27 0,2.891 -2.39,5.27 -5.281,5.27 -2.93,0 -5.27,-2.379 -5.27,-5.27 0,-2.93 2.34,-5.27 5.27,-5.27"
         style="fill:#ac1b21;fill-opacity:1;fill-rule:nonzero;stroke:none"
         id="path140" />
      <path
         d="m 174.922,130.23 c 2.887,0 5.277,2.34 5.277,5.27 0,2.891 -2.39,5.27 -5.277,5.27 -2.934,0 -5.274,-2.379 -5.274,-5.27 0,-2.93 2.34,-5.27 5.274,-5.27"
         style="fill:#ac1b21;fill-opacity:1;fill-rule:nonzero;stroke:none"
         id="path142" />
      <path
         d="m 174.801,190.23 c 2.929,0 5.277,2.34 5.277,5.27 0,2.891 -2.348,5.27 -5.277,5.27 -2.891,0 -5.27,-2.379 -5.27,-5.27 0,-2.93 2.379,-5.27 5.27,-5.27"
         style="fill:#ac1b21;fill-opacity:1;fill-rule:nonzero;stroke:none"
         id="path144" />
      <path
         d="m 174.879,205.23 c 2.891,0 5.281,2.34 5.281,5.27 0,2.891 -2.39,5.27 -5.281,5.27 -2.93,0 -5.27,-2.379 -5.27,-5.27 0,-2.93 2.34,-5.27 5.27,-5.27"
         style="fill:#ac1b21;fill-opacity:1;fill-rule:nonzero;stroke:none"
         id="path146" />
      <path
         d="m 174.879,235.23 c 2.891,0 5.281,2.34 5.281,5.231 0,2.93 -2.39,5.309 -5.281,5.309 -2.93,0 -5.27,-2.379 -5.27,-5.309 0,-2.891 2.34,-5.231 5.27,-5.231"
         style="fill:#ac1b21;fill-opacity:1;fill-rule:nonzero;stroke:none"
         id="path148" />
      <path
         d="m 153.672,144.988 c 2.887,0 5.277,2.352 5.277,5.282 0,2.929 -2.39,5.269 -5.277,5.269 -2.934,0 -5.274,-2.34 -5.274,-5.269 0,-2.93 2.34,-5.282 5.274,-5.282"
         style="fill:#ac1b21;fill-opacity:1;fill-rule:nonzero;stroke:none"
         id="path150" />
      <path
         d="m 153.672,129.988 c 2.887,0 5.277,2.352 5.277,5.282 0,2.929 -2.39,5.269 -5.277,5.269 -2.934,0 -5.274,-2.34 -5.274,-5.269 0,-2.93 2.34,-5.282 5.274,-5.282"
         style="fill:#ac1b21;fill-opacity:1;fill-rule:nonzero;stroke:none"
         id="path152" />
      <path
         d="m 153.672,159.988 c 2.887,0 5.277,2.352 5.277,5.282 0,2.929 -2.39,5.269 -5.277,5.269 -2.934,0 -5.274,-2.34 -5.274,-5.269 0,-2.93 2.34,-5.282 5.274,-5.282"
         style="fill:#ac1b21;fill-opacity:1;fill-rule:nonzero;stroke:none"
         id="path154" />
      <path
         d="m 153.672,189.988 c 2.887,0 5.277,2.352 5.277,5.282 0,2.929 -2.39,5.269 -5.277,5.269 -2.934,0 -5.274,-2.34 -5.274,-5.269 0,-2.93 2.34,-5.282 5.274,-5.282"
         style="fill:#ac1b21;fill-opacity:1;fill-rule:nonzero;stroke:none"
         id="path156" />
      <path
         d="m 153.59,174.988 c 2.93,0 5.32,2.352 5.32,5.282 0,2.929 -2.39,5.269 -5.32,5.269 -2.891,0 -5.231,-2.34 -5.231,-5.269 0,-2.93 2.34,-5.282 5.231,-5.282"
         style="fill:#ac1b21;fill-opacity:1;fill-rule:nonzero;stroke:none"
         id="path158" />
      <path
         d="m 153.59,114.988 c 2.93,0 5.32,2.352 5.32,5.282 0,2.929 -2.39,5.269 -5.32,5.269 -2.891,0 -5.231,-2.34 -5.231,-5.269 0,-2.93 2.34,-5.282 5.231,-5.282"
         style="fill:#ac1b21;fill-opacity:1;fill-rule:nonzero;stroke:none"
         id="path160" />
      <path
         d="m 153.672,204.988 c 2.887,0 5.277,2.352 5.277,5.282 0,2.929 -2.39,5.269 -5.277,5.269 -2.934,0 -5.274,-2.34 -5.274,-5.269 0,-2.93 2.34,-5.282 5.274,-5.282"
         style="fill:#ac1b21;fill-opacity:1;fill-rule:nonzero;stroke:none"
         id="path162" />
      <path
         d="m 153.672,84.9883 c 2.887,0 5.277,2.3515 5.277,5.2812 0,2.9297 -2.39,5.2696 -5.277,5.2696 -2.934,0 -5.274,-2.3399 -5.274,-5.2696 0,-2.9297 2.34,-5.2812 5.274,-5.2812"
         style="fill:#ac1b21;fill-opacity:1;fill-rule:nonzero;stroke:none"
         id="path164" />
      <path
         d="m 153.672,99.9883 c 2.887,0 5.277,2.3517 5.277,5.2817 0,2.929 -2.39,5.269 -5.277,5.269 -2.934,0 -5.274,-2.34 -5.274,-5.269 0,-2.93 2.34,-5.2817 5.274,-5.2817"
         style="fill:#ac1b21;fill-opacity:1;fill-rule:nonzero;stroke:none"
         id="path166" />
      <path
         d="m 174.879,114.988 c 2.891,0 5.281,2.352 5.281,5.282 0,2.929 -2.39,5.269 -5.281,5.269 -2.93,0 -5.27,-2.34 -5.27,-5.269 0,-2.93 2.34,-5.282 5.27,-5.282"
         style="fill:#ac1b21;fill-opacity:1;fill-rule:nonzero;stroke:none"
         id="path168" />
      <path
         d="m 174.879,219.988 c 2.891,0 5.281,2.352 5.281,5.282 0,2.929 -2.39,5.269 -5.281,5.269 -2.93,0 -5.27,-2.34 -5.27,-5.269 0,-2.93 2.34,-5.282 5.27,-5.282"
         style="fill:#ac1b21;fill-opacity:1;fill-rule:nonzero;stroke:none"
         id="path170" />
      <path
         d="m 153.672,324.988 c 2.887,0 5.277,2.352 5.277,5.282 0,2.89 -2.39,5.269 -5.277,5.269 -2.934,0 -5.274,-2.379 -5.274,-5.269 0,-2.93 2.34,-5.282 5.274,-5.282"
         style="fill:#ac1b21;fill-opacity:1;fill-rule:nonzero;stroke:none"
         id="path172" />
      <path
         d="m 153.59,309.988 c 2.93,0 5.32,2.352 5.32,5.282 0,2.89 -2.39,5.269 -5.32,5.269 -2.891,0 -5.231,-2.379 -5.231,-5.269 0,-2.93 2.34,-5.282 5.231,-5.282"
         style="fill:#ac1b21;fill-opacity:1;fill-rule:nonzero;stroke:none"
         id="path174" />
      <path
         d="m 153.672,339.988 c 2.887,0 5.277,2.352 5.277,5.282 0,2.89 -2.39,5.269 -5.277,5.269 -2.934,0 -5.274,-2.379 -5.274,-5.269 0,-2.93 2.34,-5.282 5.274,-5.282"
         style="fill:#ac1b21;fill-opacity:1;fill-rule:nonzero;stroke:none"
         id="path176" />
      <path
         d="m 153.672,354.988 c 2.887,0 5.277,2.352 5.277,5.282 0,2.89 -2.39,5.269 -5.277,5.269 -2.934,0 -5.274,-2.379 -5.274,-5.269 0,-2.93 2.34,-5.282 5.274,-5.282"
         style="fill:#ac1b21;fill-opacity:1;fill-rule:nonzero;stroke:none"
         id="path178" />
      <path
         d="m 174.801,324.988 c 2.929,0 5.277,2.352 5.277,5.282 0,2.89 -2.348,5.269 -5.277,5.269 -2.891,0 -5.27,-2.379 -5.27,-5.269 0,-2.93 2.379,-5.282 5.27,-5.282"
         style="fill:#ac1b21;fill-opacity:1;fill-rule:nonzero;stroke:none"
         id="path180" />
      <path
         d="m 174.801,339.988 c 2.929,0 5.277,2.352 5.277,5.282 0,2.89 -2.348,5.269 -5.277,5.269 -2.891,0 -5.27,-2.379 -5.27,-5.269 0,-2.93 2.379,-5.282 5.27,-5.282"
         style="fill:#ac1b21;fill-opacity:1;fill-rule:nonzero;stroke:none"
         id="path182" />
      <path
         d="m 174.801,354.988 c 2.929,0 5.277,2.352 5.277,5.282 0,2.89 -2.348,5.269 -5.277,5.269 -2.891,0 -5.27,-2.379 -5.27,-5.269 0,-2.93 2.379,-5.282 5.27,-5.282"
         style="fill:#ac1b21;fill-opacity:1;fill-rule:nonzero;stroke:none"
         id="path184" />
      <path
         d="m 68.8711,444.988 c 2.9297,0 5.2695,2.352 5.2695,5.282 0,2.89 -2.3398,5.269 -5.2695,5.269 -2.9297,0 -5.2813,-2.379 -5.2813,-5.269 0,-2.93 2.3516,-5.282 5.2813,-5.282"
         style="fill:#ac1b21;fill-opacity:1;fill-rule:nonzero;stroke:none"
         id="path186" />
      <path
         d="m 90.0781,444.988 c 2.8907,0 5.2735,2.352 5.2735,5.282 0,2.89 -2.3828,5.269 -5.2735,5.269 -2.9297,0 -5.2773,-2.379 -5.2773,-5.269 0,-2.93 2.3476,-5.282 5.2773,-5.282"
         style="fill:#ac1b21;fill-opacity:1;fill-rule:nonzero;stroke:none"
         id="path188" />
      <path
         d="m 90.0781,459.988 c 2.8907,0 5.2735,2.352 5.2735,5.282 0,2.89 -2.3828,5.269 -5.2735,5.269 -2.9297,0 -5.2773,-2.379 -5.2773,-5.269 0,-2.93 2.3476,-5.282 5.2773,-5.282"
         style="fill:#ac1b21;fill-opacity:1;fill-rule:nonzero;stroke:none"
         id="path190" />
      <path
         d="m 111.289,444.988 c 2.891,0 5.27,2.352 5.27,5.282 0,2.89 -2.379,5.269 -5.27,5.269 -2.93,0 -5.309,-2.379 -5.309,-5.269 0,-2.93 2.379,-5.282 5.309,-5.282"
         style="fill:#ac1b21;fill-opacity:1;fill-rule:nonzero;stroke:none"
         id="path192" />
      <path
         d="m 132.461,444.988 c 2.93,0 5.269,2.352 5.269,5.282 0,2.89 -2.339,5.269 -5.269,5.269 -2.891,0 -5.27,-2.379 -5.27,-5.269 0,-2.93 2.379,-5.282 5.27,-5.282"
         style="fill:#ac1b21;fill-opacity:1;fill-rule:nonzero;stroke:none"
         id="path194" />
      <path
         d="m 153.672,369.988 c 2.887,0 5.277,2.352 5.277,5.282 0,2.89 -2.39,5.269 -5.277,5.269 -2.934,0 -5.274,-2.379 -5.274,-5.269 0,-2.93 2.34,-5.282 5.274,-5.282"
         style="fill:#ac1b21;fill-opacity:1;fill-rule:nonzero;stroke:none"
         id="path196" />
      <path
         d="m 153.672,399.988 c 2.887,0 5.277,2.352 5.277,5.282 0,2.89 -2.39,5.269 -5.277,5.269 -2.934,0 -5.274,-2.379 -5.274,-5.269 0,-2.93 2.34,-5.282 5.274,-5.282"
         style="fill:#ac1b21;fill-opacity:1;fill-rule:nonzero;stroke:none"
         id="path198" />
      <path
         d="m 153.59,384.988 c 2.93,0 5.32,2.352 5.32,5.282 0,2.89 -2.39,5.269 -5.32,5.269 -2.891,0 -5.231,-2.379 -5.231,-5.269 0,-2.93 2.34,-5.282 5.231,-5.282"
         style="fill:#ac1b21;fill-opacity:1;fill-rule:nonzero;stroke:none"
         id="path200" />
      <path
         d="m 153.672,414.988 c 2.887,0 5.277,2.352 5.277,5.282 0,2.89 -2.39,5.269 -5.277,5.269 -2.934,0 -5.274,-2.379 -5.274,-5.269 0,-2.93 2.34,-5.282 5.274,-5.282"
         style="fill:#ac1b21;fill-opacity:1;fill-rule:nonzero;stroke:none"
         id="path202" />
      <path
         d="m 153.672,429.988 c 2.887,0 5.277,2.352 5.277,5.282 0,2.89 -2.39,5.269 -5.277,5.269 -2.934,0 -5.274,-2.379 -5.274,-5.269 0,-2.93 2.34,-5.282 5.274,-5.282"
         style="fill:#ac1b21;fill-opacity:1;fill-rule:nonzero;stroke:none"
         id="path204" />
      <path
         d="m 153.672,444.988 c 2.887,0 5.277,2.352 5.277,5.282 0,2.89 -2.39,5.269 -5.277,5.269 -2.934,0 -5.274,-2.379 -5.274,-5.269 0,-2.93 2.34,-5.282 5.274,-5.282"
         style="fill:#ac1b21;fill-opacity:1;fill-rule:nonzero;stroke:none"
         id="path206" />
      <path
         d="m 111.289,459.988 c 2.891,0 5.27,2.352 5.27,5.282 0,2.89 -2.379,5.269 -5.27,5.269 -2.93,0 -5.309,-2.379 -5.309,-5.269 0,-2.93 2.379,-5.282 5.309,-5.282"
         style="fill:#ac1b21;fill-opacity:1;fill-rule:nonzero;stroke:none"
         id="path208" />
      <path
         d="m 132.461,459.988 c 2.93,0 5.269,2.352 5.269,5.282 0,2.89 -2.339,5.269 -5.269,5.269 -2.891,0 -5.27,-2.379 -5.27,-5.269 0,-2.93 2.379,-5.282 5.27,-5.282"
         style="fill:#ac1b21;fill-opacity:1;fill-rule:nonzero;stroke:none"
         id="path210" />
      <path
         d="m 153.672,459.988 c 2.887,0 5.277,2.352 5.277,5.282 0,2.89 -2.39,5.269 -5.277,5.269 -2.934,0 -5.274,-2.379 -5.274,-5.269 0,-2.93 2.34,-5.282 5.274,-5.282"
         style="fill:#ac1b21;fill-opacity:1;fill-rule:nonzero;stroke:none"
         id="path212" />
      <path
         d="m 174.879,369.988 c 2.891,0 5.281,2.352 5.281,5.282 0,2.89 -2.39,5.269 -5.281,5.269 -2.93,0 -5.27,-2.379 -5.27,-5.269 0,-2.93 2.34,-5.282 5.27,-5.282"
         style="fill:#ac1b21;fill-opacity:1;fill-rule:nonzero;stroke:none"
         id="path214" />
      <path
         d="m 174.879,399.988 c 2.891,0 5.281,2.352 5.281,5.282 0,2.89 -2.39,5.269 -5.281,5.269 -2.93,0 -5.27,-2.379 -5.27,-5.269 0,-2.93 2.34,-5.282 5.27,-5.282"
         style="fill:#ac1b21;fill-opacity:1;fill-rule:nonzero;stroke:none"
         id="path216" />
      <path
         d="m 174.801,384.988 c 2.929,0 5.277,2.352 5.277,5.282 0,2.89 -2.348,5.269 -5.277,5.269 -2.891,0 -5.27,-2.379 -5.27,-5.269 0,-2.93 2.379,-5.282 5.27,-5.282"
         style="fill:#ac1b21;fill-opacity:1;fill-rule:nonzero;stroke:none"
         id="path218" />
      <path
         d="m 174.879,414.988 c 2.891,0 5.281,2.352 5.281,5.282 0,2.89 -2.39,5.269 -5.281,5.269 -2.93,0 -5.27,-2.379 -5.27,-5.269 0,-2.93 2.34,-5.282 5.27,-5.282"
         style="fill:#ac1b21;fill-opacity:1;fill-rule:nonzero;stroke:none"
         id="path220" />
      <path
         d="m 174.879,429.988 c 2.891,0 5.281,2.352 5.281,5.282 0,2.89 -2.39,5.269 -5.281,5.269 -2.93,0 -5.27,-2.379 -5.27,-5.269 0,-2.93 2.34,-5.282 5.27,-5.282"
         style="fill:#ac1b21;fill-opacity:1;fill-rule:nonzero;stroke:none"
         id="path222" />
      <path
         d="m 174.879,444.988 c 2.891,0 5.281,2.352 5.281,5.282 0,2.89 -2.39,5.269 -5.281,5.269 -2.93,0 -5.27,-2.379 -5.27,-5.269 0,-2.93 2.34,-5.282 5.27,-5.282"
         style="fill:#ac1b21;fill-opacity:1;fill-rule:nonzero;stroke:none"
         id="path224" />
      <path
         d="m 174.879,459.988 c 2.891,0 5.281,2.352 5.281,5.282 0,2.89 -2.39,5.269 -5.281,5.269 -2.93,0 -5.27,-2.379 -5.27,-5.269 0,-2.93 2.34,-5.282 5.27,-5.282"
         style="fill:#ac1b21;fill-opacity:1;fill-rule:nonzero;stroke:none"
         id="path226" />
      <path
         d="m 280.898,249.988 c 2.93,0 5.274,2.352 5.274,5.282 0,2.89 -2.344,5.269 -5.274,5.269 -2.886,0 -5.238,-2.379 -5.238,-5.269 0,-2.93 2.352,-5.282 5.238,-5.282"
         style="fill:#ac1b21;fill-opacity:1;fill-rule:nonzero;stroke:none"
         id="path228" />
      <path
         d="m 280.898,234.988 c 2.93,0 5.274,2.352 5.274,5.282 0,2.89 -2.344,5.269 -5.274,5.269 -2.886,0 -5.238,-2.379 -5.238,-5.269 0,-2.93 2.352,-5.282 5.238,-5.282"
         style="fill:#ac1b21;fill-opacity:1;fill-rule:nonzero;stroke:none"
         id="path230" />
      <path
         d="m 280.898,264.988 c 2.93,0 5.274,2.352 5.274,5.282 0,2.89 -2.344,5.269 -5.274,5.269 -2.886,0 -5.238,-2.379 -5.238,-5.269 0,-2.93 2.352,-5.282 5.238,-5.282"
         style="fill:#ac1b21;fill-opacity:1;fill-rule:nonzero;stroke:none"
         id="path232" />
      <path
         d="m 280.898,294.988 c 2.93,0 5.274,2.352 5.274,5.282 0,2.89 -2.344,5.269 -5.274,5.269 -2.886,0 -5.238,-2.379 -5.238,-5.269 0,-2.93 2.352,-5.282 5.238,-5.282"
         style="fill:#ac1b21;fill-opacity:1;fill-rule:nonzero;stroke:none"
         id="path234" />
      <path
         d="m 280.859,279.988 c 2.93,0 5.27,2.352 5.27,5.282 0,2.89 -2.34,5.269 -5.27,5.269 -2.929,0 -5.269,-2.379 -5.269,-5.269 0,-2.93 2.34,-5.282 5.269,-5.282"
         style="fill:#ac1b21;fill-opacity:1;fill-rule:nonzero;stroke:none"
         id="path236" />
      <path
         d="m 280.898,309.988 c 2.93,0 5.274,2.352 5.274,5.282 0,2.89 -2.344,5.269 -5.274,5.269 -2.886,0 -5.238,-2.379 -5.238,-5.269 0,-2.93 2.352,-5.282 5.238,-5.282"
         style="fill:#ac1b21;fill-opacity:1;fill-rule:nonzero;stroke:none"
         id="path238" />
      <path
         d="m 302.07,279.988 c 2.891,0 5.27,2.352 5.27,5.282 0,2.89 -2.379,5.269 -5.27,5.269 -2.929,0 -5.269,-2.379 -5.269,-5.269 0,-2.93 2.34,-5.282 5.269,-5.282"
         style="fill:#ac1b21;fill-opacity:1;fill-rule:nonzero;stroke:none"
         id="path240" />
      <path
         d="m 302.07,264.988 c 2.891,0 5.27,2.352 5.27,5.282 0,2.89 -2.379,5.269 -5.27,5.269 -2.929,0 -5.269,-2.379 -5.269,-5.269 0,-2.93 2.34,-5.282 5.269,-5.282"
         style="fill:#ac1b21;fill-opacity:1;fill-rule:nonzero;stroke:none"
         id="path242" />
      <path
         d="m 302.07,294.988 c 2.891,0 5.27,2.352 5.27,5.282 0,2.89 -2.379,5.269 -5.27,5.269 -2.929,0 -5.269,-2.379 -5.269,-5.269 0,-2.93 2.34,-5.282 5.269,-5.282"
         style="fill:#ac1b21;fill-opacity:1;fill-rule:nonzero;stroke:none"
         id="path244" />
      <path
         d="m 302.07,324.988 c 2.891,0 5.27,2.352 5.27,5.282 0,2.89 -2.379,5.269 -5.27,5.269 -2.929,0 -5.269,-2.379 -5.269,-5.269 0,-2.93 2.34,-5.282 5.269,-5.282"
         style="fill:#ac1b21;fill-opacity:1;fill-rule:nonzero;stroke:none"
         id="path246" />
      <path
         d="m 301.988,309.988 c 2.934,0 5.282,2.352 5.282,5.282 0,2.89 -2.348,5.269 -5.282,5.269 -2.886,0 -5.269,-2.379 -5.269,-5.269 0,-2.93 2.383,-5.282 5.269,-5.282"
         style="fill:#ac1b21;fill-opacity:1;fill-rule:nonzero;stroke:none"
         id="path248" />
      <path
         d="m 302.07,339.988 c 2.891,0 5.27,2.352 5.27,5.282 0,2.89 -2.379,5.269 -5.27,5.269 -2.929,0 -5.269,-2.379 -5.269,-5.269 0,-2.93 2.34,-5.282 5.269,-5.282"
         style="fill:#ac1b21;fill-opacity:1;fill-rule:nonzero;stroke:none"
         id="path250" />
      <path
         d="m 280.859,339.988 c 2.93,0 5.27,2.352 5.27,5.282 0,2.89 -2.34,5.269 -5.27,5.269 -2.929,0 -5.269,-2.379 -5.269,-5.269 0,-2.93 2.34,-5.282 5.269,-5.282"
         style="fill:#ac1b21;fill-opacity:1;fill-rule:nonzero;stroke:none"
         id="path252" />
      <path
         d="m 280.859,354.988 c 2.93,0 5.27,2.352 5.27,5.282 0,2.89 -2.34,5.269 -5.27,5.269 -2.929,0 -5.269,-2.379 -5.269,-5.269 0,-2.93 2.34,-5.282 5.269,-5.282"
         style="fill:#ac1b21;fill-opacity:1;fill-rule:nonzero;stroke:none"
         id="path254" />
      <path
         d="m 280.898,324.988 c 2.93,0 5.274,2.352 5.274,5.282 0,2.89 -2.344,5.269 -5.274,5.269 -2.886,0 -5.238,-2.379 -5.238,-5.269 0,-2.93 2.352,-5.282 5.238,-5.282"
         style="fill:#ac1b21;fill-opacity:1;fill-rule:nonzero;stroke:none"
         id="path256" />
      <path
         d="m 302.07,354.988 c 2.891,0 5.27,2.352 5.27,5.282 0,2.89 -2.379,5.269 -5.27,5.269 -2.929,0 -5.269,-2.379 -5.269,-5.269 0,-2.93 2.34,-5.282 5.269,-5.282"
         style="fill:#ac1b21;fill-opacity:1;fill-rule:nonzero;stroke:none"
         id="path258" />
      <path
         d="m 344.449,324.988 c 2.93,0 5.281,2.352 5.281,5.282 0,2.89 -2.351,5.269 -5.281,5.269 -2.89,0 -5.269,-2.379 -5.269,-5.269 0,-2.93 2.379,-5.282 5.269,-5.282"
         style="fill:#ac1b21;fill-opacity:1;fill-rule:nonzero;stroke:none"
         id="path260" />
      <path
         d="m 344.41,309.988 c 2.891,0 5.281,2.352 5.281,5.282 0,2.89 -2.39,5.269 -5.281,5.269 -2.93,0 -5.269,-2.379 -5.269,-5.269 0,-2.93 2.339,-5.282 5.269,-5.282"
         style="fill:#ac1b21;fill-opacity:1;fill-rule:nonzero;stroke:none"
         id="path262" />
      <path
         d="m 344.449,339.988 c 2.93,0 5.281,2.352 5.281,5.282 0,2.89 -2.351,5.269 -5.281,5.269 -2.89,0 -5.269,-2.379 -5.269,-5.269 0,-2.93 2.379,-5.282 5.269,-5.282"
         style="fill:#ac1b21;fill-opacity:1;fill-rule:nonzero;stroke:none"
         id="path264" />
      <path
         d="m 344.449,354.988 c 2.93,0 5.281,2.352 5.281,5.282 0,2.89 -2.351,5.269 -5.281,5.269 -2.89,0 -5.269,-2.379 -5.269,-5.269 0,-2.93 2.379,-5.282 5.269,-5.282"
         style="fill:#ac1b21;fill-opacity:1;fill-rule:nonzero;stroke:none"
         id="path266" />
      <path
         d="m 365.621,339.988 c 2.899,0 5.238,2.352 5.238,5.282 0,2.89 -2.339,5.269 -5.238,5.269 -2.922,0 -5.312,-2.379 -5.312,-5.269 0,-2.93 2.39,-5.282 5.312,-5.282"
         style="fill:#ac1b21;fill-opacity:1;fill-rule:nonzero;stroke:none"
         id="path268" />
      <path
         d="m 365.621,354.988 c 2.899,0 5.238,2.352 5.238,5.282 0,2.89 -2.339,5.269 -5.238,5.269 -2.922,0 -5.312,-2.379 -5.312,-5.269 0,-2.93 2.39,-5.282 5.312,-5.282"
         style="fill:#ac1b21;fill-opacity:1;fill-rule:nonzero;stroke:none"
         id="path270" />
      <path
         d="m 280.859,369.988 c 2.93,0 5.27,2.352 5.27,5.282 0,2.89 -2.34,5.269 -5.27,5.269 -2.929,0 -5.269,-2.379 -5.269,-5.269 0,-2.93 2.34,-5.282 5.269,-5.282"
         style="fill:#ac1b21;fill-opacity:1;fill-rule:nonzero;stroke:none"
         id="path272" />
      <path
         d="m 280.859,399.988 c 2.93,0 5.27,2.352 5.27,5.282 0,2.89 -2.34,5.269 -5.27,5.269 -2.929,0 -5.269,-2.379 -5.269,-5.269 0,-2.93 2.34,-5.282 5.269,-5.282"
         style="fill:#ac1b21;fill-opacity:1;fill-rule:nonzero;stroke:none"
         id="path274" />
      <path
         d="m 280.82,384.988 c 2.891,0 5.27,2.352 5.27,5.282 0,2.89 -2.379,5.269 -5.27,5.269 -2.929,0 -5.269,-2.379 -5.269,-5.269 0,-2.93 2.34,-5.282 5.269,-5.282"
         style="fill:#ac1b21;fill-opacity:1;fill-rule:nonzero;stroke:none"
         id="path276" />
      <path
         d="m 280.859,414.988 c 2.93,0 5.27,2.352 5.27,5.282 0,2.89 -2.34,5.269 -5.27,5.269 -2.929,0 -5.269,-2.379 -5.269,-5.269 0,-2.93 2.34,-5.282 5.269,-5.282"
         style="fill:#ac1b21;fill-opacity:1;fill-rule:nonzero;stroke:none"
         id="path278" />
      <path
         d="m 280.859,429.988 c 2.93,0 5.27,2.352 5.27,5.282 0,2.89 -2.34,5.269 -5.27,5.269 -2.929,0 -5.269,-2.379 -5.269,-5.269 0,-2.93 2.34,-5.282 5.269,-5.282"
         style="fill:#ac1b21;fill-opacity:1;fill-rule:nonzero;stroke:none"
         id="path280" />
      <path
         d="m 280.859,444.988 c 2.93,0 5.27,2.352 5.27,5.282 0,2.89 -2.34,5.269 -5.27,5.269 -2.929,0 -5.269,-2.379 -5.269,-5.269 0,-2.93 2.34,-5.282 5.269,-5.282"
         style="fill:#ac1b21;fill-opacity:1;fill-rule:nonzero;stroke:none"
         id="path282" />
      <path
         d="m 280.859,459.988 c 2.93,0 5.27,2.352 5.27,5.282 0,2.89 -2.34,5.269 -5.27,5.269 -2.929,0 -5.269,-2.379 -5.269,-5.269 0,-2.93 2.34,-5.282 5.269,-5.282"
         style="fill:#ac1b21;fill-opacity:1;fill-rule:nonzero;stroke:none"
         id="path284" />
      <path
         d="m 280.859,474.988 c 2.93,0 5.27,2.352 5.27,5.282 0,2.89 -2.34,5.269 -5.27,5.269 -2.929,0 -5.269,-2.379 -5.269,-5.269 0,-2.93 2.34,-5.282 5.269,-5.282"
         style="fill:#ac1b21;fill-opacity:1;fill-rule:nonzero;stroke:none"
         id="path286" />
      <path
         d="m 280.859,489.988 c 2.93,0 5.27,2.352 5.27,5.282 0,2.89 -2.34,5.269 -5.27,5.269 -2.929,0 -5.269,-2.379 -5.269,-5.269 0,-2.93 2.34,-5.282 5.269,-5.282"
         style="fill:#ac1b21;fill-opacity:1;fill-rule:nonzero;stroke:none"
         id="path288" />
      <path
         d="m 302.07,369.988 c 2.891,0 5.27,2.352 5.27,5.282 0,2.89 -2.379,5.269 -5.27,5.269 -2.929,0 -5.269,-2.379 -5.269,-5.269 0,-2.93 2.34,-5.282 5.269,-5.282"
         style="fill:#ac1b21;fill-opacity:1;fill-rule:nonzero;stroke:none"
         id="path290" />
      <path
         d="m 302.07,399.988 c 2.891,0 5.27,2.352 5.27,5.282 0,2.89 -2.379,5.269 -5.27,5.269 -2.929,0 -5.269,-2.379 -5.269,-5.269 0,-2.93 2.34,-5.282 5.269,-5.282"
         style="fill:#ac1b21;fill-opacity:1;fill-rule:nonzero;stroke:none"
         id="path292" />
      <path
         d="m 301.988,384.988 c 2.934,0 5.282,2.352 5.282,5.282 0,2.89 -2.348,5.269 -5.282,5.269 -2.886,0 -5.269,-2.379 -5.269,-5.269 0,-2.93 2.383,-5.282 5.269,-5.282"
         style="fill:#ac1b21;fill-opacity:1;fill-rule:nonzero;stroke:none"
         id="path294" />
      <path
         d="m 302.07,414.988 c 2.891,0 5.27,2.352 5.27,5.282 0,2.89 -2.379,5.269 -5.27,5.269 -2.929,0 -5.269,-2.379 -5.269,-5.269 0,-2.93 2.34,-5.282 5.269,-5.282"
         style="fill:#ac1b21;fill-opacity:1;fill-rule:nonzero;stroke:none"
         id="path296" />
      <path
         d="m 302.07,429.988 c 2.891,0 5.27,2.352 5.27,5.282 0,2.89 -2.379,5.269 -5.27,5.269 -2.929,0 -5.269,-2.379 -5.269,-5.269 0,-2.93 2.34,-5.282 5.269,-5.282"
         style="fill:#ac1b21;fill-opacity:1;fill-rule:nonzero;stroke:none"
         id="path298" />
      <path
         d="m 302.07,444.988 c 2.891,0 5.27,2.352 5.27,5.282 0,2.89 -2.379,5.269 -5.27,5.269 -2.929,0 -5.269,-2.379 -5.269,-5.269 0,-2.93 2.34,-5.282 5.269,-5.282"
         style="fill:#ac1b21;fill-opacity:1;fill-rule:nonzero;stroke:none"
         id="path300" />
      <path
         d="m 344.449,369.988 c 2.93,0 5.281,2.352 5.281,5.282 0,2.89 -2.351,5.269 -5.281,5.269 -2.89,0 -5.269,-2.379 -5.269,-5.269 0,-2.93 2.379,-5.282 5.269,-5.282"
         style="fill:#ac1b21;fill-opacity:1;fill-rule:nonzero;stroke:none"
         id="path302" />
      <path
         d="m 344.449,399.988 c 2.93,0 5.281,2.352 5.281,5.282 0,2.89 -2.351,5.269 -5.281,5.269 -2.89,0 -5.269,-2.379 -5.269,-5.269 0,-2.93 2.379,-5.282 5.269,-5.282"
         style="fill:#ac1b21;fill-opacity:1;fill-rule:nonzero;stroke:none"
         id="path304" />
      <path
         d="m 344.41,384.988 c 2.891,0 5.281,2.352 5.281,5.282 0,2.89 -2.39,5.269 -5.281,5.269 -2.93,0 -5.269,-2.379 -5.269,-5.269 0,-2.93 2.339,-5.282 5.269,-5.282"
         style="fill:#ac1b21;fill-opacity:1;fill-rule:nonzero;stroke:none"
         id="path306" />
      <path
         d="m 344.449,414.988 c 2.93,0 5.281,2.352 5.281,5.282 0,2.89 -2.351,5.269 -5.281,5.269 -2.89,0 -5.269,-2.379 -5.269,-5.269 0,-2.93 2.379,-5.282 5.269,-5.282"
         style="fill:#ac1b21;fill-opacity:1;fill-rule:nonzero;stroke:none"
         id="path308" />
      <path
         d="m 344.449,429.988 c 2.93,0 5.281,2.352 5.281,5.282 0,2.89 -2.351,5.269 -5.281,5.269 -2.89,0 -5.269,-2.379 -5.269,-5.269 0,-2.93 2.379,-5.282 5.269,-5.282"
         style="fill:#ac1b21;fill-opacity:1;fill-rule:nonzero;stroke:none"
         id="path310" />
      <path
         d="m 344.449,444.988 c 2.93,0 5.281,2.352 5.281,5.282 0,2.89 -2.351,5.269 -5.281,5.269 -2.89,0 -5.269,-2.379 -5.269,-5.269 0,-2.93 2.379,-5.282 5.269,-5.282"
         style="fill:#ac1b21;fill-opacity:1;fill-rule:nonzero;stroke:none"
         id="path312" />
      <path
         d="m 302.07,459.988 c 2.891,0 5.27,2.352 5.27,5.282 0,2.89 -2.379,5.269 -5.27,5.269 -2.929,0 -5.269,-2.379 -5.269,-5.269 0,-2.93 2.34,-5.282 5.269,-5.282"
         style="fill:#ac1b21;fill-opacity:1;fill-rule:nonzero;stroke:none"
         id="path314" />
      <path
         d="m 344.449,459.988 c 2.93,0 5.281,2.352 5.281,5.282 0,2.89 -2.351,5.269 -5.281,5.269 -2.89,0 -5.269,-2.379 -5.269,-5.269 0,-2.93 2.379,-5.282 5.269,-5.282"
         style="fill:#ac1b21;fill-opacity:1;fill-rule:nonzero;stroke:none"
         id="path316" />
      <path
         d="m 302.07,474.988 c 2.891,0 5.27,2.352 5.27,5.282 0,2.89 -2.379,5.269 -5.27,5.269 -2.929,0 -5.269,-2.379 -5.269,-5.269 0,-2.93 2.34,-5.282 5.269,-5.282"
         style="fill:#ac1b21;fill-opacity:1;fill-rule:nonzero;stroke:none"
         id="path318" />
      <path
         d="m 344.449,474.988 c 2.93,0 5.281,2.352 5.281,5.282 0,2.89 -2.351,5.269 -5.281,5.269 -2.89,0 -5.269,-2.379 -5.269,-5.269 0,-2.93 2.379,-5.282 5.269,-5.282"
         style="fill:#ac1b21;fill-opacity:1;fill-rule:nonzero;stroke:none"
         id="path320" />
      <path
         d="m 302.07,489.988 c 2.891,0 5.27,2.352 5.27,5.282 0,2.89 -2.379,5.269 -5.27,5.269 -2.929,0 -5.269,-2.379 -5.269,-5.269 0,-2.93 2.34,-5.282 5.269,-5.282"
         style="fill:#ac1b21;fill-opacity:1;fill-rule:nonzero;stroke:none"
         id="path322" />
      <path
         d="m 365.66,369.988 c 2.891,0 5.281,2.352 5.281,5.282 0,2.89 -2.39,5.269 -5.281,5.269 -2.93,0 -5.269,-2.379 -5.269,-5.269 0,-2.93 2.339,-5.282 5.269,-5.282"
         style="fill:#ac1b21;fill-opacity:1;fill-rule:nonzero;stroke:none"
         id="path324" />
      <path
         d="m 365.66,399.988 c 2.891,0 5.281,2.352 5.281,5.282 0,2.89 -2.39,5.269 -5.281,5.269 -2.93,0 -5.269,-2.379 -5.269,-5.269 0,-2.93 2.339,-5.282 5.269,-5.282"
         style="fill:#ac1b21;fill-opacity:1;fill-rule:nonzero;stroke:none"
         id="path326" />
      <path
         d="m 365.621,384.988 c 2.899,0 5.238,2.352 5.238,5.282 0,2.89 -2.339,5.269 -5.238,5.269 -2.922,0 -5.312,-2.379 -5.312,-5.269 0,-2.93 2.39,-5.282 5.312,-5.282"
         style="fill:#ac1b21;fill-opacity:1;fill-rule:nonzero;stroke:none"
         id="path328" />
      <path
         d="m 365.66,414.988 c 2.891,0 5.281,2.352 5.281,5.282 0,2.89 -2.39,5.269 -5.281,5.269 -2.93,0 -5.269,-2.379 -5.269,-5.269 0,-2.93 2.339,-5.282 5.269,-5.282"
         style="fill:#ac1b21;fill-opacity:1;fill-rule:nonzero;stroke:none"
         id="path330" />
      <path
         d="m 365.66,429.988 c 2.891,0 5.281,2.352 5.281,5.282 0,2.89 -2.39,5.269 -5.281,5.269 -2.93,0 -5.269,-2.379 -5.269,-5.269 0,-2.93 2.339,-5.282 5.269,-5.282"
         style="fill:#ac1b21;fill-opacity:1;fill-rule:nonzero;stroke:none"
         id="path332" />
      <path
         d="m 365.66,444.988 c 2.891,0 5.281,2.352 5.281,5.282 0,2.89 -2.39,5.269 -5.281,5.269 -2.93,0 -5.269,-2.379 -5.269,-5.269 0,-2.93 2.339,-5.282 5.269,-5.282"
         style="fill:#ac1b21;fill-opacity:1;fill-rule:nonzero;stroke:none"
         id="path334" />
      <path
         d="m 365.66,459.988 c 2.891,0 5.281,2.352 5.281,5.282 0,2.89 -2.39,5.269 -5.281,5.269 -2.93,0 -5.269,-2.379 -5.269,-5.269 0,-2.93 2.339,-5.282 5.269,-5.282"
         style="fill:#ac1b21;fill-opacity:1;fill-rule:nonzero;stroke:none"
         id="path336" />
      <path
         d="m 365.66,474.988 c 2.891,0 5.281,2.352 5.281,5.282 0,2.89 -2.39,5.269 -5.281,5.269 -2.93,0 -5.269,-2.379 -5.269,-5.269 0,-2.93 2.339,-5.282 5.269,-5.282"
         style="fill:#ac1b21;fill-opacity:1;fill-rule:nonzero;stroke:none"
         id="path338" />
      <path
         d="m 365.66,489.988 c 2.891,0 5.281,2.352 5.281,5.282 0,2.89 -2.39,5.269 -5.281,5.269 -2.93,0 -5.269,-2.379 -5.269,-5.269 0,-2.93 2.339,-5.282 5.269,-5.282"
         style="fill:#ac1b21;fill-opacity:1;fill-rule:nonzero;stroke:none"
         id="path340" />
      <path
         d="m 280.859,504.91 c 2.93,0 5.27,2.391 5.27,5.281 0,2.93 -2.34,5.27 -5.27,5.27 -2.929,0 -5.269,-2.34 -5.269,-5.27 0,-2.89 2.34,-5.281 5.269,-5.281"
         style="fill:#ac1b21;fill-opacity:1;fill-rule:nonzero;stroke:none"
         id="path342" />
      <path
         d="m 302.07,504.91 c 2.891,0 5.27,2.391 5.27,5.281 0,2.93 -2.379,5.27 -5.27,5.27 -2.929,0 -5.269,-2.34 -5.269,-5.27 0,-2.89 2.34,-5.281 5.269,-5.281"
         style="fill:#ac1b21;fill-opacity:1;fill-rule:nonzero;stroke:none"
         id="path344" />
      <path
         d="m 302.07,519.91 c 2.891,0 5.27,2.352 5.27,5.281 0,2.93 -2.379,5.27 -5.27,5.27 -2.929,0 -5.269,-2.34 -5.269,-5.27 0,-2.929 2.34,-5.281 5.269,-5.281"
         style="fill:#ac1b21;fill-opacity:1;fill-rule:nonzero;stroke:none"
         id="path346" />
      <path
         d="m 217.301,175.23 c 2.929,0 5.277,2.34 5.277,5.27 0,2.891 -2.348,5.27 -5.277,5.27 -2.891,0 -5.27,-2.379 -5.27,-5.27 0,-2.93 2.379,-5.27 5.27,-5.27"
         style="fill:#ac1b21;fill-opacity:1;fill-rule:nonzero;stroke:none"
         id="path348" />
      <path
         d="m 217.301,160.23 c 2.929,0 5.277,2.34 5.277,5.27 0,2.891 -2.348,5.27 -5.277,5.27 -2.891,0 -5.27,-2.379 -5.27,-5.27 0,-2.93 2.379,-5.27 5.27,-5.27"
         style="fill:#ac1b21;fill-opacity:1;fill-rule:nonzero;stroke:none"
         id="path350" />
      <path
         d="m 217.27,190.23 c 2.929,0 5.269,2.34 5.269,5.27 0,2.891 -2.34,5.27 -5.269,5.27 -2.93,0 -5.282,-2.379 -5.282,-5.27 0,-2.93 2.352,-5.27 5.282,-5.27"
         style="fill:#ac1b21;fill-opacity:1;fill-rule:nonzero;stroke:none"
         id="path352" />
      <path
         d="m 217.27,205.23 c 2.929,0 5.269,2.34 5.269,5.27 0,2.891 -2.34,5.27 -5.269,5.27 -2.93,0 -5.282,-2.379 -5.282,-5.27 0,-2.93 2.352,-5.27 5.282,-5.27"
         style="fill:#ac1b21;fill-opacity:1;fill-rule:nonzero;stroke:none"
         id="path354" />
      <path
         d="m 217.301,220.23 c 2.929,0 5.277,2.34 5.277,5.27 0,2.891 -2.348,5.27 -5.277,5.27 -2.891,0 -5.27,-2.379 -5.27,-5.27 0,-2.93 2.379,-5.27 5.27,-5.27"
         style="fill:#ac1b21;fill-opacity:1;fill-rule:nonzero;stroke:none"
         id="path356" />
      <path
         d="m 217.27,250.23 c 2.929,0 5.269,2.34 5.269,5.231 0,2.93 -2.34,5.309 -5.269,5.309 -2.93,0 -5.282,-2.379 -5.282,-5.309 0,-2.891 2.352,-5.231 5.282,-5.231"
         style="fill:#ac1b21;fill-opacity:1;fill-rule:nonzero;stroke:none"
         id="path358" />
      <path
         d="m 217.301,280.23 c 2.929,0 5.277,2.34 5.277,5.231 0,2.93 -2.348,5.309 -5.277,5.309 -2.891,0 -5.27,-2.379 -5.27,-5.309 0,-2.891 2.379,-5.231 5.27,-5.231"
         style="fill:#ac1b21;fill-opacity:1;fill-rule:nonzero;stroke:none"
         id="path360" />
      <path
         d="m 217.301,295.23 c 2.929,0 5.277,2.34 5.277,5.231 0,2.93 -2.348,5.309 -5.277,5.309 -2.891,0 -5.27,-2.379 -5.27,-5.309 0,-2.891 2.379,-5.231 5.27,-5.231"
         style="fill:#ac1b21;fill-opacity:1;fill-rule:nonzero;stroke:none"
         id="path362" />
      <path
         d="m 217.301,310.23 c 2.929,0 5.277,2.34 5.277,5.231 0,2.93 -2.348,5.269 -5.277,5.269 -2.891,0 -5.27,-2.339 -5.27,-5.269 0,-2.891 2.379,-5.231 5.27,-5.231"
         style="fill:#ac1b21;fill-opacity:1;fill-rule:nonzero;stroke:none"
         id="path364" />
      <path
         d="m 217.23,265.23 c 2.891,0 5.27,2.34 5.27,5.231 0,2.93 -2.379,5.309 -5.27,5.309 -2.929,0 -5.281,-2.379 -5.281,-5.309 0,-2.891 2.352,-5.231 5.281,-5.231"
         style="fill:#ac1b21;fill-opacity:1;fill-rule:nonzero;stroke:none"
         id="path366" />
      <path
         d="m 216.801,235.23 c 2.929,0 5.269,2.34 5.269,5.231 0,2.93 -2.34,5.309 -5.269,5.309 -2.891,0 -5.281,-2.379 -5.281,-5.309 0,-2.891 2.39,-5.231 5.281,-5.231"
         style="fill:#ac1b21;fill-opacity:1;fill-rule:nonzero;stroke:none"
         id="path368" />
      <path
         d="m 217.27,324.988 c 2.929,0 5.269,2.352 5.269,5.282 0,2.89 -2.34,5.269 -5.269,5.269 -2.93,0 -5.282,-2.379 -5.282,-5.269 0,-2.93 2.352,-5.282 5.282,-5.282"
         style="fill:#ac1b21;fill-opacity:1;fill-rule:nonzero;stroke:none"
         id="path370" />
      <path
         d="m 217.27,339.988 c 2.929,0 5.269,2.352 5.269,5.282 0,2.89 -2.34,5.269 -5.269,5.269 -2.93,0 -5.282,-2.379 -5.282,-5.269 0,-2.93 2.352,-5.282 5.282,-5.282"
         style="fill:#ac1b21;fill-opacity:1;fill-rule:nonzero;stroke:none"
         id="path372" />
      <path
         d="m 217.27,354.988 c 2.929,0 5.269,2.352 5.269,5.282 0,2.89 -2.34,5.269 -5.269,5.269 -2.93,0 -5.282,-2.379 -5.282,-5.269 0,-2.93 2.352,-5.282 5.282,-5.282"
         style="fill:#ac1b21;fill-opacity:1;fill-rule:nonzero;stroke:none"
         id="path374" />
      <path
         d="m 217.27,369.988 c 2.929,0 5.269,2.352 5.269,5.282 0,2.89 -2.34,5.269 -5.269,5.269 -2.93,0 -5.282,-2.379 -5.282,-5.269 0,-2.93 2.352,-5.282 5.282,-5.282"
         style="fill:#ac1b21;fill-opacity:1;fill-rule:nonzero;stroke:none"
         id="path376" />
      <path
         d="m 217.27,399.988 c 2.929,0 5.269,2.352 5.269,5.282 0,2.89 -2.34,5.269 -5.269,5.269 -2.93,0 -5.282,-2.379 -5.282,-5.269 0,-2.93 2.352,-5.282 5.282,-5.282"
         style="fill:#ac1b21;fill-opacity:1;fill-rule:nonzero;stroke:none"
         id="path378" />
      <path
         d="m 217.23,384.988 c 2.891,0 5.27,2.352 5.27,5.282 0,2.89 -2.379,5.269 -5.27,5.269 -2.929,0 -5.281,-2.379 -5.281,-5.269 0,-2.93 2.352,-5.282 5.281,-5.282"
         style="fill:#ac1b21;fill-opacity:1;fill-rule:nonzero;stroke:none"
         id="path380" />
      <path
         d="m 217.27,414.988 c 2.929,0 5.269,2.352 5.269,5.282 0,2.89 -2.34,5.269 -5.269,5.269 -2.93,0 -5.282,-2.379 -5.282,-5.269 0,-2.93 2.352,-5.282 5.282,-5.282"
         style="fill:#ac1b21;fill-opacity:1;fill-rule:nonzero;stroke:none"
         id="path382" />
      <path
         d="m 217.27,429.988 c 2.929,0 5.269,2.352 5.269,5.282 0,2.89 -2.34,5.269 -5.269,5.269 -2.93,0 -5.282,-2.379 -5.282,-5.269 0,-2.93 2.352,-5.282 5.282,-5.282"
         style="fill:#ac1b21;fill-opacity:1;fill-rule:nonzero;stroke:none"
         id="path384" />
      <path
         d="m 217.27,444.988 c 2.929,0 5.269,2.352 5.269,5.282 0,2.89 -2.34,5.269 -5.269,5.269 -2.93,0 -5.282,-2.379 -5.282,-5.269 0,-2.93 2.352,-5.282 5.282,-5.282"
         style="fill:#ac1b21;fill-opacity:1;fill-rule:nonzero;stroke:none"
         id="path386" />
      <path
         d="m 217.27,459.988 c 2.929,0 5.269,2.352 5.269,5.282 0,2.89 -2.34,5.269 -5.269,5.269 -2.93,0 -5.282,-2.379 -5.282,-5.269 0,-2.93 2.352,-5.282 5.282,-5.282"
         style="fill:#ac1b21;fill-opacity:1;fill-rule:nonzero;stroke:none"
         id="path388" />
      <path
         d="m 217.27,474.988 c 2.929,0 5.269,2.352 5.269,5.282 0,2.89 -2.34,5.269 -5.269,5.269 -2.93,0 -5.282,-2.379 -5.282,-5.269 0,-2.93 2.352,-5.282 5.282,-5.282"
         style="fill:#ac1b21;fill-opacity:1;fill-rule:nonzero;stroke:none"
         id="path390" />
      <path
         d="m 217.27,489.988 c 2.929,0 5.269,2.352 5.269,5.282 0,2.89 -2.34,5.269 -5.269,5.269 -2.93,0 -5.282,-2.379 -5.282,-5.269 0,-2.93 2.352,-5.282 5.282,-5.282"
         style="fill:#ac1b21;fill-opacity:1;fill-rule:nonzero;stroke:none"
         id="path392" />
      <path
         d="m 238.48,204.988 c 2.891,0 5.27,2.352 5.27,5.282 0,2.929 -2.379,5.269 -5.27,5.269 -2.929,0 -5.281,-2.34 -5.281,-5.269 0,-2.93 2.352,-5.282 5.281,-5.282"
         style="fill:#ac1b21;fill-opacity:1;fill-rule:nonzero;stroke:none"
         id="path394" />
      <path
         d="m 238.48,189.988 c 2.891,0 5.27,2.352 5.27,5.282 0,2.929 -2.379,5.269 -5.27,5.269 -2.929,0 -5.281,-2.34 -5.281,-5.269 0,-2.93 2.352,-5.282 5.281,-5.282"
         style="fill:#ac1b21;fill-opacity:1;fill-rule:nonzero;stroke:none"
         id="path396" />
      <path
         d="m 238.48,219.988 c 2.891,0 5.27,2.352 5.27,5.282 0,2.929 -2.379,5.269 -5.27,5.269 -2.929,0 -5.281,-2.34 -5.281,-5.269 0,-2.93 2.352,-5.282 5.281,-5.282"
         style="fill:#ac1b21;fill-opacity:1;fill-rule:nonzero;stroke:none"
         id="path398" />
      <path
         d="m 238.48,249.988 c 2.891,0 5.27,2.352 5.27,5.282 0,2.89 -2.379,5.269 -5.27,5.269 -2.929,0 -5.281,-2.379 -5.281,-5.269 0,-2.93 2.352,-5.282 5.281,-5.282"
         style="fill:#ac1b21;fill-opacity:1;fill-rule:nonzero;stroke:none"
         id="path400" />
      <path
         d="m 238.398,234.988 c 2.93,0 5.274,2.352 5.274,5.282 0,2.89 -2.344,5.269 -5.274,5.269 -2.886,0 -5.277,-2.379 -5.277,-5.269 0,-2.93 2.391,-5.282 5.277,-5.282"
         style="fill:#ac1b21;fill-opacity:1;fill-rule:nonzero;stroke:none"
         id="path402" />
      <path
         d="m 238.48,264.988 c 2.891,0 5.27,2.352 5.27,5.282 0,2.89 -2.379,5.269 -5.27,5.269 -2.929,0 -5.281,-2.379 -5.281,-5.269 0,-2.93 2.352,-5.282 5.281,-5.282"
         style="fill:#ac1b21;fill-opacity:1;fill-rule:nonzero;stroke:none"
         id="path404" />
      <path
         d="m 238.48,279.988 c 2.891,0 5.27,2.352 5.27,5.282 0,2.89 -2.379,5.269 -5.27,5.269 -2.929,0 -5.281,-2.379 -5.281,-5.269 0,-2.93 2.352,-5.282 5.281,-5.282"
         style="fill:#ac1b21;fill-opacity:1;fill-rule:nonzero;stroke:none"
         id="path406" />
      <path
         d="m 238.48,309.988 c 2.891,0 5.27,2.352 5.27,5.282 0,2.89 -2.379,5.269 -5.27,5.269 -2.929,0 -5.281,-2.379 -5.281,-5.269 0,-2.93 2.352,-5.282 5.281,-5.282"
         style="fill:#ac1b21;fill-opacity:1;fill-rule:nonzero;stroke:none"
         id="path408" />
      <path
         d="m 238.398,294.988 c 2.93,0 5.274,2.352 5.274,5.282 0,2.89 -2.344,5.269 -5.274,5.269 -2.886,0 -5.277,-2.379 -5.277,-5.269 0,-2.93 2.391,-5.282 5.277,-5.282"
         style="fill:#ac1b21;fill-opacity:1;fill-rule:nonzero;stroke:none"
         id="path410" />
      <path
         d="m 238.48,324.988 c 2.891,0 5.27,2.352 5.27,5.282 0,2.89 -2.379,5.269 -5.27,5.269 -2.929,0 -5.281,-2.379 -5.281,-5.269 0,-2.93 2.352,-5.282 5.281,-5.282"
         style="fill:#ac1b21;fill-opacity:1;fill-rule:nonzero;stroke:none"
         id="path412" />
      <path
         d="m 238.48,339.988 c 2.891,0 5.27,2.352 5.27,5.282 0,2.89 -2.379,5.269 -5.27,5.269 -2.929,0 -5.281,-2.379 -5.281,-5.269 0,-2.93 2.352,-5.282 5.281,-5.282"
         style="fill:#ac1b21;fill-opacity:1;fill-rule:nonzero;stroke:none"
         id="path414" />
      <path
         d="m 238.48,354.988 c 2.891,0 5.27,2.352 5.27,5.282 0,2.89 -2.379,5.269 -5.27,5.269 -2.929,0 -5.281,-2.379 -5.281,-5.269 0,-2.93 2.352,-5.282 5.281,-5.282"
         style="fill:#ac1b21;fill-opacity:1;fill-rule:nonzero;stroke:none"
         id="path416" />
      <path
         d="m 238.48,369.988 c 2.891,0 5.27,2.352 5.27,5.282 0,2.89 -2.379,5.269 -5.27,5.269 -2.929,0 -5.281,-2.379 -5.281,-5.269 0,-2.93 2.352,-5.282 5.281,-5.282"
         style="fill:#ac1b21;fill-opacity:1;fill-rule:nonzero;stroke:none"
         id="path418" />
      <path
         d="m 238.48,399.988 c 2.891,0 5.27,2.352 5.27,5.282 0,2.89 -2.379,5.269 -5.27,5.269 -2.929,0 -5.281,-2.379 -5.281,-5.269 0,-2.93 2.352,-5.282 5.281,-5.282"
         style="fill:#ac1b21;fill-opacity:1;fill-rule:nonzero;stroke:none"
         id="path420" />
      <path
         d="m 238.398,384.988 c 2.93,0 5.274,2.352 5.274,5.282 0,2.89 -2.344,5.269 -5.274,5.269 -2.886,0 -5.277,-2.379 -5.277,-5.269 0,-2.93 2.391,-5.282 5.277,-5.282"
         style="fill:#ac1b21;fill-opacity:1;fill-rule:nonzero;stroke:none"
         id="path422" />
      <path
         d="m 238.48,414.988 c 2.891,0 5.27,2.352 5.27,5.282 0,2.89 -2.379,5.269 -5.27,5.269 -2.929,0 -5.281,-2.379 -5.281,-5.269 0,-2.93 2.352,-5.282 5.281,-5.282"
         style="fill:#ac1b21;fill-opacity:1;fill-rule:nonzero;stroke:none"
         id="path424" />
      <path
         d="m 238.48,429.988 c 2.891,0 5.27,2.352 5.27,5.282 0,2.89 -2.379,5.269 -5.27,5.269 -2.929,0 -5.281,-2.379 -5.281,-5.269 0,-2.93 2.352,-5.282 5.281,-5.282"
         style="fill:#ac1b21;fill-opacity:1;fill-rule:nonzero;stroke:none"
         id="path426" />
      <path
         d="m 238.48,444.988 c 2.891,0 5.27,2.352 5.27,5.282 0,2.89 -2.379,5.269 -5.27,5.269 -2.929,0 -5.281,-2.379 -5.281,-5.269 0,-2.93 2.352,-5.282 5.281,-5.282"
         style="fill:#ac1b21;fill-opacity:1;fill-rule:nonzero;stroke:none"
         id="path428" />
      <path
         d="m 238.48,459.988 c 2.891,0 5.27,2.352 5.27,5.282 0,2.89 -2.379,5.269 -5.27,5.269 -2.929,0 -5.281,-2.379 -5.281,-5.269 0,-2.93 2.352,-5.282 5.281,-5.282"
         style="fill:#ac1b21;fill-opacity:1;fill-rule:nonzero;stroke:none"
         id="path430" />
      <path
         d="m 238.48,474.988 c 2.891,0 5.27,2.352 5.27,5.282 0,2.89 -2.379,5.269 -5.27,5.269 -2.929,0 -5.281,-2.379 -5.281,-5.269 0,-2.93 2.352,-5.282 5.281,-5.282"
         style="fill:#ac1b21;fill-opacity:1;fill-rule:nonzero;stroke:none"
         id="path432" />
      <path
         d="m 238.48,489.988 c 2.891,0 5.27,2.352 5.27,5.282 0,2.89 -2.379,5.269 -5.27,5.269 -2.929,0 -5.281,-2.379 -5.281,-5.269 0,-2.93 2.352,-5.282 5.281,-5.282"
         style="fill:#ac1b21;fill-opacity:1;fill-rule:nonzero;stroke:none"
         id="path434" />
      <path
         d="m 217.27,504.91 c 2.929,0 5.269,2.391 5.269,5.281 0,2.93 -2.34,5.27 -5.269,5.27 -2.93,0 -5.282,-2.34 -5.282,-5.27 0,-2.89 2.352,-5.281 5.282,-5.281"
         style="fill:#ac1b21;fill-opacity:1;fill-rule:nonzero;stroke:none"
         id="path436" />
      <path
         d="m 217.27,519.91 c 2.929,0 5.269,2.352 5.269,5.281 0,2.93 -2.34,5.27 -5.269,5.27 -2.93,0 -5.282,-2.34 -5.282,-5.27 0,-2.929 2.352,-5.281 5.282,-5.281"
         style="fill:#ac1b21;fill-opacity:1;fill-rule:nonzero;stroke:none"
         id="path438" />
      <path
         d="m 238.48,504.91 c 2.891,0 5.27,2.391 5.27,5.281 0,2.93 -2.379,5.27 -5.27,5.27 -2.929,0 -5.281,-2.34 -5.281,-5.27 0,-2.89 2.352,-5.281 5.281,-5.281"
         style="fill:#ac1b21;fill-opacity:1;fill-rule:nonzero;stroke:none"
         id="path440" />
      <path
         d="m 238.48,519.91 c 2.891,0 5.27,2.352 5.27,5.281 0,2.93 -2.379,5.27 -5.27,5.27 -2.929,0 -5.281,-2.34 -5.281,-5.27 0,-2.929 2.352,-5.281 5.281,-5.281"
         style="fill:#ac1b21;fill-opacity:1;fill-rule:nonzero;stroke:none"
         id="path442" />
      <path
         d="m 132.461,534.91 c 2.93,0 5.269,2.391 5.269,5.281 0,2.93 -2.339,5.27 -5.269,5.27 -2.891,0 -5.27,-2.34 -5.27,-5.27 0,-2.89 2.379,-5.281 5.27,-5.281"
         style="fill:#ac1b21;fill-opacity:1;fill-rule:nonzero;stroke:none"
         id="path444" />
      <path
         d="m 153.672,534.91 c 2.887,0 5.277,2.391 5.277,5.281 0,2.93 -2.39,5.27 -5.277,5.27 -2.934,0 -5.274,-2.34 -5.274,-5.27 0,-2.89 2.34,-5.281 5.274,-5.281"
         style="fill:#ac1b21;fill-opacity:1;fill-rule:nonzero;stroke:none"
         id="path446" />
      <path
         d="m 153.672,549.91 c 2.887,0 5.277,2.352 5.277,5.281 0,2.93 -2.39,5.27 -5.277,5.27 -2.934,0 -5.274,-2.34 -5.274,-5.27 0,-2.929 2.34,-5.281 5.274,-5.281"
         style="fill:#ac1b21;fill-opacity:1;fill-rule:nonzero;stroke:none"
         id="path448" />
      <path
         d="m 174.879,534.91 c 2.891,0 5.281,2.391 5.281,5.281 0,2.93 -2.39,5.27 -5.281,5.27 -2.93,0 -5.27,-2.34 -5.27,-5.27 0,-2.89 2.34,-5.281 5.27,-5.281"
         style="fill:#ac1b21;fill-opacity:1;fill-rule:nonzero;stroke:none"
         id="path450" />
      <path
         d="m 196.051,534.91 c 2.929,0 5.277,2.391 5.277,5.281 0,2.93 -2.348,5.27 -5.277,5.27 -2.891,0 -5.27,-2.34 -5.27,-5.27 0,-2.89 2.379,-5.281 5.27,-5.281"
         style="fill:#ac1b21;fill-opacity:1;fill-rule:nonzero;stroke:none"
         id="path452" />
      <path
         d="m 217.27,534.91 c 2.929,0 5.269,2.391 5.269,5.281 0,2.93 -2.34,5.27 -5.269,5.27 -2.93,0 -5.282,-2.34 -5.282,-5.27 0,-2.89 2.352,-5.281 5.282,-5.281"
         style="fill:#ac1b21;fill-opacity:1;fill-rule:nonzero;stroke:none"
         id="path454" />
      <path
         d="m 174.879,549.91 c 2.891,0 5.281,2.352 5.281,5.281 0,2.93 -2.39,5.27 -5.281,5.27 -2.93,0 -5.27,-2.34 -5.27,-5.27 0,-2.929 2.34,-5.281 5.27,-5.281"
         style="fill:#ac1b21;fill-opacity:1;fill-rule:nonzero;stroke:none"
         id="path456" />
      <path
         d="m 196.051,549.91 c 2.929,0 5.277,2.352 5.277,5.281 0,2.93 -2.348,5.27 -5.277,5.27 -2.891,0 -5.27,-2.34 -5.27,-5.27 0,-2.929 2.379,-5.281 5.27,-5.281"
         style="fill:#ac1b21;fill-opacity:1;fill-rule:nonzero;stroke:none"
         id="path458" />
      <path
         d="m 217.27,549.91 c 2.929,0 5.269,2.352 5.269,5.281 0,2.93 -2.34,5.27 -5.269,5.27 -2.93,0 -5.282,-2.34 -5.282,-5.27 0,-2.929 2.352,-5.281 5.282,-5.281"
         style="fill:#ac1b21;fill-opacity:1;fill-rule:nonzero;stroke:none"
         id="path460" />
      <path
         d="m 238.48,534.91 c 2.891,0 5.27,2.391 5.27,5.281 0,2.93 -2.379,5.27 -5.27,5.27 -2.929,0 -5.281,-2.34 -5.281,-5.27 0,-2.89 2.352,-5.281 5.281,-5.281"
         style="fill:#ac1b21;fill-opacity:1;fill-rule:nonzero;stroke:none"
         id="path462" />
      <path
         d="m 238.48,549.91 c 2.891,0 5.27,2.352 5.27,5.281 0,2.93 -2.379,5.27 -5.27,5.27 -2.929,0 -5.281,-2.34 -5.281,-5.27 0,-2.929 2.352,-5.281 5.281,-5.281"
         style="fill:#ac1b21;fill-opacity:1;fill-rule:nonzero;stroke:none"
         id="path464" />
      <path
         d="m 511.02,595.461 v 43.828 c 0,14.301 -7.821,24.691 -22.622,24.691 -5.976,0 -11.718,-2.351 -16.25,-7 v 31.059 H 455.23 v -92.578 h 16.918 v 41.367 c 0,8.832 5.582,11.953 10.942,11.953 5.308,0 11.012,-3.011 11.012,-11.953 v -41.367 z m 49.371,-8.512 h -40.2695 v -3.82813 h 40.2695 z m 57.808,8.512 v 92.578 h -16.91 v -30.82 c -4.41,4.961 -9.609,6.761 -16.488,6.761 -6.641,0 -12.731,-2.351 -16.52,-6.101 -6.761,-6.758 -6.871,-18.32 -6.871,-28.469 0,-10.16 0.11,-21.84 6.871,-28.601 3.789,-3.789 10,-6.129 16.641,-6.129 7.148,0 12.109,1.949 16.758,7.148 v -6.367 z m -16.91,33.949 c 0,-11.058 -1.41,-19.5 -11.559,-19.5 -10.121,0 -11.449,8.442 -11.449,19.5 0,11.051 1.328,19.371 11.449,19.371 10.149,0 11.559,-8.32 11.559,-19.371 z m 86.051,-33.949 v 44.609 c 0,15.86 -9.879,23.91 -28.82,23.91 -11.329,0 -17.821,-2.07 -24.461,-9.339 L 644.84,644.09 c 3.519,4.031 6.531,5.59 13.012,5.59 8.988,0 12.617,-3.239 12.617,-10.66 v -3.36 h -16.02 c -15.699,0 -23.121,-8.871 -23.121,-19.648 0,-5.981 1.953,-11.453 5.582,-15.203 4.031,-4.02 9.61,-5.969 17.309,-5.969 7.769,0 12.07,1.949 16.64,6.48 v -5.859 z m -16.871,24.961 c 0,-4.141 -0.668,-6.871 -2.457,-8.551 -3.012,-2.851 -6.024,-3.25 -10.672,-3.25 -6.641,0 -9.762,3.09 -9.762,7.777 0,4.801 3.402,7.692 9.492,7.692 h 13.399 v -3.668"
         style="fill:#231f20;fill-opacity:1;fill-rule:nonzero;stroke:none"
         id="path466" />
      <path
         d="m 492.301,445.461 v 53.437 h -5.699 V 474.949 H 461.25 v 23.949 h -5.699 v -53.437 h 5.699 v 24.379 h 25.352 v -24.379 z m 53.75,26.719 c 0,11.332 0,16.558 -5,21.601 -3.59,3.59 -8.321,5.547 -13.672,5.547 -5.309,0 -10.039,-1.957 -13.629,-5.547 -5.039,-5.043 -5.039,-10.269 -5.039,-21.601 0,-11.328 0,-16.559 5.039,-21.602 3.59,-3.598 8.32,-5.547 13.629,-5.547 5.351,0 10.082,1.949 13.672,5.547 5,5.043 5,10.274 5,21.602 z m -5.699,0 c 0,-11.168 -0.352,-14.77 -3.75,-18.239 -2.301,-2.39 -5.661,-3.793 -9.223,-3.793 -3.508,0 -6.867,1.403 -9.219,3.793 -3.359,3.469 -3.75,7.071 -3.75,18.239 0,11.172 0.391,14.769 3.75,18.242 2.352,2.379 5.711,3.789 9.219,3.789 3.562,0 6.922,-1.41 9.223,-3.789 3.398,-3.473 3.75,-7.07 3.75,-18.242 z m 57.308,-11.25 h -5.672 c -1.437,-6.52 -6.168,-10.782 -12.847,-10.782 -3.52,0 -6.911,1.332 -9.219,3.75 -3.363,3.442 -3.75,7.114 -3.75,18.282 0,11.172 0.387,14.84 3.75,18.281 2.308,2.418 5.699,3.75 9.219,3.75 6.679,0 11.25,-4.262 12.699,-10.781 h 5.82 c -1.801,10.039 -8.91,15.898 -18.519,15.898 -5.231,0 -10.039,-1.957 -13.629,-5.547 -5.043,-5.043 -5.043,-10.269 -5.043,-21.601 0,-11.328 0,-16.559 5.043,-21.602 3.59,-3.598 8.398,-5.547 13.629,-5.547 9.531,0 16.8,5.86 18.519,15.899 z m 51.25,-15.469 v 53.437 h -5.711 v -23.949 h -25.347 v 23.949 h -5.704 v -53.437 h 5.704 v 24.379 h 25.347 v -24.379 z m 50.891,14.73 c 0,4.411 -1.563,8.079 -4.492,10.579 -2.219,1.921 -4.719,2.968 -9.719,3.75 l -5.86,0.902 c -2.781,0.43 -5.55,1.488 -7.23,2.887 -1.641,1.453 -2.379,3.562 -2.379,6.171 0,5.942 4.141,9.891 11.25,9.891 5.617,0 9.141,-1.57 12.457,-4.57 l 3.672,3.668 c -4.57,4.14 -9.059,5.859 -15.898,5.859 -10.582,0 -17.114,-6.019 -17.114,-15.078 0,-4.262 1.371,-7.578 4.063,-9.961 2.308,-2.027 5.629,-3.398 9.808,-4.059 l 6.25,-0.98 c 3.911,-0.59 5.231,-1.051 6.95,-2.539 1.722,-1.52 2.543,-3.91 2.543,-6.68 0,-6.211 -4.762,-9.883 -12.582,-9.883 -6.008,0 -10.11,1.403 -14.571,5.821 l -3.859,-3.91 c 5,-5 10.269,-7.028 18.281,-7.028 11.09,0 18.43,5.778 18.43,15.16 z m 49.379,0.739 h -5.7 c -1.449,-6.52 -6.179,-10.782 -12.82,-10.782 -3.551,0 -6.91,1.332 -9.25,3.75 -3.359,3.442 -3.75,7.114 -3.75,18.282 0,11.172 0.391,14.84 3.75,18.281 2.34,2.418 5.699,3.75 9.25,3.75 6.641,0 11.25,-4.262 12.66,-10.781 h 5.86 c -1.801,10.039 -8.95,15.898 -18.52,15.898 -5.269,0 -10.07,-1.957 -13.672,-5.547 -5.039,-5.043 -5.039,-10.269 -5.039,-21.601 0,-11.328 0,-16.559 5.039,-21.602 3.602,-3.598 8.403,-5.547 13.672,-5.547 9.5,0 16.801,5.86 18.52,15.899 z m 51.519,-15.469 v 53.437 H 795 v -23.949 h -25.352 v 23.949 h -5.699 v -53.437 h 5.699 V 469.84 H 795 v -24.379 z m 55.121,17.66 v 35.777 h -5.699 v -35.347 c 0,-8.09 -5.199,-13.403 -12.973,-13.403 -7.808,0 -12.886,5.313 -12.886,13.403 v 35.347 h -5.711 v -35.777 c 0,-10.672 7.777,-18.09 18.597,-18.09 10.782,0 18.672,7.418 18.672,18.09 z m 50.86,-17.66 v 5.117 h -27.301 v 48.32 h -5.707 v -53.437 z m 46.41,0 v 5.117 h -27.469 v 19.262 h 23.399 v 5.109 h -23.399 v 18.832 h 27.469 v 5.117 h -33.168 v -53.437 z m 80.78,27.309 c 0,7.421 0.31,15.621 -5.24,21.171 -3.24,3.2 -7.97,4.957 -13.51,4.957 h -18.28 v -53.437 h 18.28 c 5.54,0 10.27,1.758 13.51,4.961 5.55,5.547 5.24,14.918 5.24,22.348 z m -5.71,0 c 0,-6.532 0.16,-14.461 -3.51,-18.29 -2.77,-2.851 -6.37,-3.902 -10.51,-3.902 h -11.64 v 43.203 h 11.64 c 4.14,0 7.74,-1.051 10.51,-3.91 3.67,-3.82 3.51,-10.582 3.51,-17.101 z m 59.03,-27.309 -19.57,53.437 h -4.81 l -19.65,-53.437 h 6.1 l 4.26,12.109 h 23.32 l 4.29,-12.109 z m -11.99,17.027 h -19.97 l 10.04,28.211 z m 62.22,-17.027 -12.65,24.258 c 6.91,1.402 11.64,6.519 11.64,14.301 0,9.25 -6.53,14.878 -15.82,14.878 h -20.51 v -53.437 h 5.7 v 23.711 h 12.85 l 12.15,-23.711 z m -6.72,38.48 c 0,-6.531 -4.45,-9.73 -10.66,-9.73 h -14.26 v 19.57 h 14.26 c 6.21,0 10.66,-3.32 10.66,-9.84 z m 69.14,-38.48 v 53.437 h -5.7 l -16.95,-37.886 -17.39,37.886 h -5.7 v -53.437 h 5.7 v 40.59 l 14.85,-32.153 h 4.88 l 14.61,32.153 v -40.59 z m 50.98,14.73 c 0,4.411 -1.56,8.079 -4.49,10.579 -2.23,1.921 -4.73,2.968 -9.73,3.75 l -5.86,0.902 c -2.77,0.43 -5.54,1.488 -7.19,2.887 -1.67,1.453 -2.42,3.562 -2.42,6.171 0,5.942 4.14,9.891 11.25,9.891 5.63,0 9.14,-1.57 12.46,-4.57 l 3.68,3.668 c -4.57,4.14 -9.07,5.859 -15.9,5.859 -10.59,0 -17.11,-6.019 -17.11,-15.078 0,-4.262 1.37,-7.578 4.06,-9.961 2.31,-2.027 5.63,-3.398 9.81,-4.059 l 6.24,-0.98 c 3.91,-0.59 5.24,-1.051 6.96,-2.539 1.76,-1.52 2.58,-3.91 2.58,-6.68 0,-6.211 -4.81,-9.883 -12.62,-9.883 -6.02,0 -10.12,1.403 -14.53,5.821 l -3.91,-3.91 c 5,-5 10.28,-7.028 18.28,-7.028 11.1,0 18.44,5.778 18.44,15.16 z m 44.57,33.59 v 5.117 h -36.6 v -5.117 h 15.47 v -48.32 h 5.66 v 48.32 z m 48.52,-48.32 -19.57,53.437 h -4.81 l -19.65,-53.437 h 6.1 l 4.25,12.109 h 23.32 l 4.3,-12.109 z m -12,17.027 h -19.96 l 10.08,28.211 z m 61.88,10.282 c 0,7.421 0.31,15.621 -5.24,21.171 -3.24,3.2 -7.96,4.957 -13.51,4.957 h -18.28 v -53.437 h 18.28 c 5.55,0 10.27,1.758 13.51,4.961 5.55,5.547 5.24,14.918 5.24,22.348 z m -5.7,0 c 0,-6.532 0.15,-14.461 -3.52,-18.29 -2.77,-2.851 -6.37,-3.902 -10.51,-3.902 h -11.64 v 43.203 h 11.64 c 4.14,0 7.74,-1.051 10.51,-3.91 3.67,-3.82 3.52,-10.582 3.52,-17.101 z m 51.99,21.011 v 5.117 h -36.6 v -5.117 h 15.43 v -48.32 h 5.7 v 48.32 h 15.47"
         style="fill:#231f20;fill-opacity:1;fill-rule:nonzero;stroke:none"
         id="path468" />
      <path
         d="m 492.379,373.121 v 35.777 h -5.699 v -35.347 c 0,-8.09 -5.2,-13.403 -12.969,-13.403 -7.813,0 -12.93,5.313 -12.93,13.403 v 35.347 h -5.66 v -35.777 c 0,-10.672 7.77,-18.09 18.59,-18.09 10.777,0 18.668,7.418 18.668,18.09 z m 56.601,-17.66 v 53.437 h -5.699 v -42.699 l -28.32,42.699 h -5.43 v -53.437 h 5.699 v 42.848 l 28.36,-42.848 z m 25,53.437 h -5.69922 V 355.4605 H 573.98 Z m 53.989,0 h -6.02 l -13.859,-43.199 -13.871,43.199 h -6.02 l 17.582,-53.437 h 4.649 z M 675,355.461 v 5.117 h -27.461 v 19.262 h 23.402 v 5.109 h -23.402 v 18.832 H 675 v 5.117 h -33.16 v -53.437 z m 51.879,0 -12.66,24.258 c 6.91,1.402 11.601,6.519 11.601,14.301 0,9.25 -6.48,14.878 -15.82,14.878 h -20.469 v -53.437 h 5.699 v 23.711 h 12.86 l 12.14,-23.711 z m -6.719,38.48 c 0,-6.531 -4.461,-9.73 -10.672,-9.73 H 695.23 v 19.57 h 14.258 c 6.211,0 10.672,-3.32 10.672,-9.84 z m 53.668,-23.75 c 0,4.411 -1.558,8.079 -4.488,10.579 -2.27,1.921 -4.731,2.968 -9.77,3.75 l -5.82,0.902 c -2.77,0.43 -5.551,1.488 -7.23,2.887 -1.641,1.453 -2.379,3.562 -2.379,6.171 0,5.942 4.14,9.891 11.25,9.891 5.629,0 9.14,-1.57 12.461,-4.57 l 3.668,3.668 c -4.571,4.14 -9.098,5.859 -15.899,5.859 -10.582,0 -17.101,-6.019 -17.101,-15.078 0,-4.262 1.359,-7.578 4.058,-9.961 2.301,-2.027 5.621,-3.398 9.801,-4.059 l 6.25,-0.98 c 3.871,-0.59 5.242,-1.051 6.961,-2.539 1.711,-1.52 2.531,-3.91 2.531,-6.68 0,-6.211 -4.801,-9.883 -12.57,-9.883 -6.02,0 -10.121,1.403 -14.571,5.821 l -3.91,-3.91 c 5.039,-5 10.309,-7.028 18.321,-7.028 11.089,0 18.437,5.778 18.437,15.16 z m 22.152,38.707 h -5.71094 V 355.4605 H 795.98 Z m 50.7,-5.117 v 5.117 h -36.602 v -5.117 h 15.434 v -48.32 h 5.699 v 48.32 z m 46.949,5.117 h -6.168 L 875,383.309 862.422,408.898 h -6.172 l 15.941,-31.367 v -22.07 h 5.661 v 22.07 z m 71.762,-26.718 c 0,11.332 0,16.558 -5.039,21.601 -3.59,3.59 -8.321,5.547 -13.633,5.547 -5.309,0 -10.039,-1.957 -13.629,-5.547 -5.039,-5.043 -5.039,-10.269 -5.039,-21.601 0,-11.328 0,-16.559 5.039,-21.602 3.59,-3.598 8.32,-5.547 13.629,-5.547 5.312,0 10.043,1.949 13.633,5.547 5.039,5.043 5.039,10.274 5.039,21.602 z m -5.7,0 c 0,-11.168 -0.351,-14.77 -3.75,-18.239 -2.312,-2.39 -5.711,-3.793 -9.222,-3.793 -3.52,0 -6.918,1.403 -9.219,3.793 -3.398,3.469 -3.75,7.071 -3.75,18.239 0,11.172 0.352,14.769 3.75,18.242 2.301,2.379 5.699,3.789 9.219,3.789 3.511,0 6.91,-1.41 9.222,-3.789 3.399,-3.473 3.75,-7.07 3.75,-18.242 z m 54.999,21.601 v 5.117 h -33.17 v -53.437 h 5.71 v 23.559 h 23.39 v 5.109 h -23.39 v 19.652 z m 71.91,-48.32 -19.57,53.437 h -4.8 l -19.65,-53.437 h 6.05 l 4.3,12.109 h 23.32 l 4.26,-12.109 z m -12.03,17.027 h -19.92 l 10.04,28.211 z m 61.13,20.711 c 0,9.602 -6.75,15.699 -16.48,15.699 h -19.88 v -53.437 h 5.7 v 21.988 h 14.18 c 9.73,0 16.48,6.141 16.48,15.75 z m -5.7,0 c 0,-7.039 -4.65,-10.629 -11.33,-10.629 h -13.63 v 21.211 h 13.63 c 6.68,0 11.33,-3.511 11.33,-10.582 z m 55,0 c 0,9.602 -6.76,15.699 -16.52,15.699 h -19.89 v -53.437 h 5.71 v 21.988 h 14.18 c 9.76,0 16.52,6.141 16.52,15.75 z m -5.7,0 c 0,-7.039 -4.65,-10.629 -11.33,-10.629 h -13.67 v 21.211 h 13.67 c 6.68,0 11.33,-3.511 11.33,-10.582 z m 51.44,-37.738 v 5.117 h -27.3 v 48.32 h -5.71 v -53.437 z m 18.09,53.437 h -5.7109 v -53.4375 h 5.7109 z m 52.34,-53.437 v 5.117 h -27.46 v 19.262 h 23.4 v 5.109 h -23.4 v 18.832 h 27.46 v 5.117 h -33.16 v -53.437 z m 51.53,27.309 c 0,7.421 0.31,15.621 -5.28,21.171 -3.2,3.2 -7.93,4.957 -13.47,4.957 h -18.33 v -53.437 h 18.33 c 5.54,0 10.27,1.758 13.47,4.961 5.59,5.547 5.28,14.918 5.28,22.348 z m -5.71,0 c 0,-6.532 0.16,-14.461 -3.51,-18.29 -2.78,-2.851 -6.41,-3.902 -10.51,-3.902 h -11.64 v 43.203 h 11.64 c 4.1,0 7.73,-1.051 10.51,-3.91 3.67,-3.82 3.51,-10.582 3.51,-17.101 z m 80.9,-12.579 c 0,4.411 -1.56,8.079 -4.49,10.579 -2.23,1.921 -4.73,2.968 -9.73,3.75 l -5.86,0.902 c -2.77,0.43 -5.54,1.488 -7.19,2.887 -1.67,1.453 -2.42,3.562 -2.42,6.171 0,5.942 4.14,9.891 11.25,9.891 5.63,0 9.14,-1.57 12.46,-4.57 l 3.68,3.668 c -4.57,4.14 -9.07,5.859 -15.9,5.859 -10.59,0 -17.11,-6.019 -17.11,-15.078 0,-4.262 1.37,-7.578 4.06,-9.961 2.31,-2.027 5.63,-3.398 9.81,-4.059 l 6.25,-0.98 c 3.9,-0.59 5.23,-1.051 6.95,-2.539 1.76,-1.52 2.58,-3.91 2.58,-6.68 0,-6.211 -4.81,-9.883 -12.62,-9.883 -6.02,0 -10.12,1.403 -14.53,5.821 l -3.91,-3.91 c 5,-5 10.28,-7.028 18.28,-7.028 11.1,0 18.44,5.778 18.44,15.16 z m 48.71,0.739 h -5.7 c -1.45,-6.52 -6.17,-10.782 -12.85,-10.782 -3.52,0 -6.88,1.332 -9.22,3.75 -3.36,3.442 -3.75,7.114 -3.75,18.282 0,11.172 0.39,14.84 3.75,18.281 2.34,2.418 5.7,3.75 9.22,3.75 6.68,0 11.25,-4.262 12.69,-10.781 h 5.86 c -1.8,10.039 -8.94,15.898 -18.55,15.898 -5.24,0 -10.04,-1.957 -13.64,-5.547 -5.03,-5.043 -5.03,-10.269 -5.03,-21.601 0,-11.328 0,-16.559 5.03,-21.602 3.6,-3.598 8.4,-5.547 13.64,-5.547 9.53,0 16.79,5.86 18.55,15.899 z m 21.8,37.968 h -5.6992 v -53.4375 h 5.6992 z m 52.07,-53.437 v 5.117 h -27.46 v 19.262 h 23.4 v 5.109 h -23.4 v 18.832 h 27.46 v 5.117 h -33.17 v -53.437 z m 54.14,0 v 53.437 h -5.7 v -42.699 l -28.36,42.699 h -5.39 v -53.437 h 5.7 v 42.848 l 28.36,-42.848 z m 51.76,15.469 h -5.71 c -1.44,-6.52 -6.17,-10.782 -12.85,-10.782 -3.51,0 -6.87,1.332 -9.22,3.75 -3.36,3.442 -3.75,7.114 -3.75,18.282 0,11.172 0.39,14.84 3.75,18.281 2.35,2.418 5.71,3.75 9.22,3.75 6.68,0 11.25,-4.262 12.7,-10.781 h 5.86 c -1.8,10.039 -8.95,15.898 -18.56,15.898 -5.23,0 -10.04,-1.957 -13.63,-5.547 -5.04,-5.043 -5.04,-10.269 -5.04,-21.601 0,-11.328 0,-16.559 5.04,-21.602 3.59,-3.598 8.4,-5.547 13.63,-5.547 9.53,0 16.84,5.86 18.56,15.899 z m 47.77,-15.469 v 5.117 h -27.46 v 19.262 h 23.4 v 5.109 h -23.4 v 18.832 h 27.46 v 5.117 h -33.16 v -53.437 z m 47.23,14.73 c 0,4.411 -1.57,8.079 -4.49,10.579 -2.23,1.921 -4.73,2.968 -9.73,3.75 l -5.86,0.902 c -2.77,0.43 -5.55,1.488 -7.23,2.887 -1.64,1.453 -2.38,3.562 -2.38,6.171 0,5.942 4.14,9.891 11.25,9.891 5.62,0 9.14,-1.57 12.46,-4.57 l 3.67,3.668 c -4.57,4.14 -9.1,5.859 -15.9,5.859 -10.58,0 -17.11,-6.019 -17.11,-15.078 0,-4.262 1.37,-7.578 4.07,-9.961 2.3,-2.027 5.62,-3.398 9.8,-4.059 l 6.25,-0.98 c 3.91,-0.59 5.24,-1.051 6.95,-2.539 1.72,-1.52 2.54,-3.91 2.54,-6.68 0,-6.211 -4.76,-9.883 -12.57,-9.883 -6.02,0 -10.12,1.403 -14.57,5.821 l -3.87,-3.91 c 5,-5 10.27,-7.028 18.28,-7.028 11.09,0 18.44,5.778 18.44,15.16"
         style="fill:#231f20;fill-opacity:1;fill-rule:nonzero;stroke:none"
         id="path470" />
    </g>
  </g>
</svg>
